P3 
64 64 
255
27 27 27 27 27 27 27 27 27 27 27 27 27 27 27 27 27 27 27 27 27 29 29 29 0 0 0 0 0 0 0 0 0 0 0 0 125 125 125 118 118 118 118 118 118 118 118 118 118 118 118 118 118 118 118 118 118 118 118 118 118 118 118 118 118 118 118 118 118 118 118 118 118 118 118 125 125 125 0 0 0 0 0 0 0 0 0 0 0 0 125 125 125 118 118 118 118 118 118 117 117 117 254 254 254 254 254 254 115 115 115 116 116 116 116 116 116 116 116 116 116 116 116 116 116 116 116 116 116 123 123 123 0 0 0 0 0 0 125 125 125 118 118 118 118 118 118 118 118 118 118 118 118 125 125 125 0 0 0 0 0 0 29 29 29 27 27 27 27 27 27 27 27 27 27 27 27 27 27 27 27 27 27 27 27 27 27 27 27 27 27 27 
27 27 27 27 27 27 27 27 27 27 27 27 27 27 27 27 27 27 29 29 29 30 30 30 0 0 0 0 0 0 0 0 0 0 0 0 126 126 126 118 118 118 117 117 117 117 117 117 117 117 117 117 117 117 117 117 117 117 117 117 117 117 117 117 117 117 117 117 117 117 117 117 118 118 118 126 126 126 0 0 0 0 0 0 0 0 0 0 0 0 127 127 127 126 126 126 117 117 117 117 117 117 254 254 254 255 255 255 114 114 114 115 115 115 115 115 115 115 115 115 116 116 116 116 116 116 116 116 116 123 123 123 0 0 0 0 0 0 127 127 127 126 126 126 117 117 117 118 118 118 118 118 118 126 126 126 0 0 0 0 0 0 30 30 30 29 29 29 27 27 27 27 27 27 27 27 27 27 27 27 27 27 27 27 27 27 27 27 27 27 27 27 
27 27 27 27 27 27 27 27 27 27 27 27 27 27 27 29 29 29 0 0 0 0 0 0 127 127 127 125 125 125 125 125 125 126 126 126 117 117 117 117 117 117 161 161 161 158 158 158 158 158 158 158 158 158 158 158 158 158 158 158 158 158 158 158 158 158 158 158 158 161 161 161 117 117 117 117 117 117 126 126 126 125 125 125 125 125 125 127 127 127 0 0 0 0 0 0 126 126 126 118 118 118 117 117 117 117 117 117 255 255 255 254 254 254 254 254 254 255 255 255 115 115 115 116 116 116 116 116 116 115 115 115 123 123 123 127 127 127 0 0 0 0 0 0 126 126 126 118 118 118 118 118 118 117 117 117 126 126 126 127 127 127 0 0 0 0 0 0 29 29 29 27 27 27 27 27 27 27 27 27 27 27 27 27 27 27 27 27 27 27 27 27 
27 27 27 27 27 27 27 27 27 27 27 27 29 29 29 30 30 30 0 0 0 0 0 0 126 126 126 118 118 118 118 118 118 118 118 118 117 117 117 117 117 117 158 158 158 156 156 156 156 156 156 156 156 156 156 156 156 156 156 156 156 156 156 156 156 156 156 156 156 158 158 158 117 117 117 117 117 117 118 118 118 118 118 118 118 118 118 126 126 126 0 0 0 0 0 0 127 127 127 126 126 126 117 117 117 117 117 117 254 254 254 254 254 254 254 254 254 255 255 255 119 119 119 120 120 120 120 120 120 120 120 120 120 120 120 127 127 127 0 0 0 0 0 0 125 125 125 118 118 118 118 118 118 118 118 118 118 118 118 126 126 126 0 0 0 0 0 0 29 29 29 27 27 27 27 27 27 27 27 27 27 27 27 27 27 27 27 27 27 27 27 27 
27 27 27 27 27 27 27 27 27 29 29 29 0 0 0 0 0 0 127 127 127 126 126 126 117 117 117 118 118 118 118 118 118 117 117 117 161 161 161 158 158 158 156 156 156 156 156 156 156 156 156 156 156 156 156 156 156 156 156 156 156 156 156 156 156 156 156 156 156 156 156 156 158 158 158 161 161 161 117 117 117 118 118 118 118 118 118 117 117 117 126 126 126 127 127 127 0 0 0 0 0 0 126 126 126 118 118 118 117 117 117 117 117 117 117 117 117 117 117 117 119 119 119 118 118 118 118 118 118 118 118 118 118 118 118 126 126 126 0 0 0 0 0 0 125 125 125 118 118 118 118 118 118 118 118 118 118 118 118 117 117 117 126 126 126 127 127 127 21 21 21 27 27 27 27 27 27 27 27 27 27 27 27 27 27 27 27 27 27 27 27 27 
27 27 27 27 27 27 27 27 27 29 29 29 0 0 0 0 0 0 126 126 126 118 118 118 118 118 118 118 118 118 117 117 117 117 117 117 158 158 158 156 156 156 156 156 156 156 156 156 156 156 156 156 156 156 156 156 156 156 156 156 156 156 156 156 156 156 156 156 156 156 156 156 156 156 156 158 158 158 117 117 117 118 118 118 118 118 118 118 118 118 118 118 118 126 126 126 0 0 0 0 0 0 127 127 127 125 125 125 125 125 125 125 125 125 125 125 125 125 125 125 125 125 125 125 125 125 125 125 125 125 125 125 125 125 125 127 127 127 0 0 0 0 0 0 125 125 125 118 118 118 118 118 118 118 118 118 118 118 118 118 118 118 118 118 118 124 124 124 23 23 23 29 29 29 27 27 27 27 27 27 27 27 27 27 27 27 27 27 27 27 27 27 
27 27 27 27 27 27 27 27 27 21 21 21 127 127 127 126 126 126 117 117 117 118 118 118 118 118 118 117 117 117 161 161 161 158 158 158 156 156 156 156 156 156 156 156 156 156 156 156 156 156 156 156 156 156 156 156 156 156 156 156 156 156 156 156 156 156 156 156 156 156 156 156 156 156 156 158 158 158 117 117 117 118 118 118 118 118 118 118 118 118 118 118 118 117 117 117 126 126 126 127 127 127 0 0 0 0 0 0 0 0 0 0 0 0 0 0 0 0 0 0 0 0 0 0 0 0 0 0 0 0 0 0 0 0 0 0 0 0 0 0 0 0 0 0 125 125 125 118 118 118 118 118 118 118 118 118 118 118 118 118 118 118 118 118 118 125 125 125 0 0 0 0 0 0 29 29 29 27 27 27 27 27 27 27 27 27 27 27 27 27 27 27 
27 27 27 27 27 27 29 29 29 23 23 23 124 124 124 118 118 118 118 118 118 118 118 118 118 118 118 117 117 117 158 158 158 156 156 156 156 156 156 156 156 156 156 156 156 156 156 156 156 156 156 156 156 156 156 156 156 156 156 156 156 156 156 156 156 156 156 156 156 156 156 156 156 156 156 158 158 158 117 117 117 118 118 118 118 118 118 118 118 118 118 118 118 118 118 118 118 118 118 126 126 126 0 0 0 0 0 0 0 0 0 0 0 0 0 0 0 0 0 0 0 0 0 0 0 0 0 0 0 0 0 0 0 0 0 0 0 0 0 0 0 0 0 0 126 126 126 118 118 118 118 118 118 118 118 118 118 118 118 118 118 118 118 118 118 126 126 126 0 0 0 0 0 0 29 29 29 27 27 27 27 27 27 27 27 27 27 27 27 27 27 27 
27 27 27 29 29 29 0 0 0 0 0 0 125 125 125 118 118 118 118 118 118 118 118 118 118 118 118 117 117 117 158 158 158 156 156 156 156 156 156 156 156 156 156 156 156 156 156 156 156 156 156 156 156 156 156 156 156 156 156 156 156 156 156 156 156 156 156 156 156 156 156 156 156 156 156 158 158 158 117 117 117 118 118 118 118 118 118 118 118 118 118 118 118 118 118 118 118 118 118 117 117 117 126 126 126 125 125 125 125 125 125 125 125 125 125 125 125 125 125 125 125 125 125 125 125 125 125 125 125 125 125 125 125 125 125 125 125 125 125 125 125 126 126 126 117 117 117 118 118 118 118 118 118 118 118 118 118 118 118 118 118 118 118 118 118 117 117 117 126 126 126 127 127 127 21 21 21 27 27 27 27 27 27 27 27 27 27 27 27 27 27 27 
27 27 27 29 29 29 0 0 0 0 0 0 126 126 126 118 118 118 118 118 118 118 118 118 118 118 118 117 117 117 158 158 158 156 156 156 156 156 156 156 156 156 156 156 156 156 156 156 156 156 156 156 156 156 156 156 156 156 156 156 156 156 156 156 156 156 156 156 156 156 156 156 158 158 158 161 161 161 117 117 117 118 118 118 118 118 118 118 118 118 118 118 118 118 118 118 118 118 118 118 118 118 118 118 118 118 118 118 118 118 118 117 117 117 126 126 126 125 125 125 125 125 125 125 125 125 125 125 125 125 125 125 125 125 125 125 125 125 125 125 125 126 126 126 117 117 117 118 118 118 118 118 118 118 118 118 118 118 118 118 118 118 118 118 118 118 118 118 118 118 118 124 124 124 23 23 23 29 29 29 27 27 27 27 27 27 27 27 27 27 27 27 
27 27 27 21 21 21 127 127 127 126 126 126 117 117 117 118 118 118 118 118 118 118 118 118 118 118 118 117 117 117 158 158 158 156 156 156 156 156 156 156 156 156 156 156 156 156 156 156 156 156 156 156 156 156 156 156 156 156 156 156 156 156 156 156 156 156 156 156 156 158 158 158 117 117 117 117 117 117 118 118 118 118 118 118 118 118 118 118 118 118 118 118 118 118 118 118 118 118 118 118 118 118 118 118 118 118 118 118 118 118 118 126 126 126 0 0 0 0 0 0 0 0 0 0 0 0 0 0 0 0 0 0 0 0 0 0 0 0 0 0 0 0 0 0 126 126 126 118 118 118 118 118 118 118 118 118 118 118 118 118 118 118 118 118 118 118 118 118 118 118 118 125 125 125 0 0 0 0 0 0 29 29 29 27 27 27 27 27 27 27 27 27 
29 29 29 23 23 23 124 124 124 118 118 118 118 118 118 118 118 118 118 118 118 118 118 118 118 118 118 117 117 117 161 161 161 158 158 158 156 156 156 156 156 156 156 156 156 156 156 156 156 156 156 156 156 156 156 156 156 156 156 156 158 158 158 158 158 158 158 158 158 161 161 161 117 117 117 118 118 118 118 118 118 118 118 118 118 118 118 118 118 118 118 118 118 118 118 118 118 118 118 118 118 118 118 118 118 117 117 117 126 126 126 127 127 127 0 0 0 0 0 0 0 0 0 0 0 0 0 0 0 0 0 0 0 0 0 0 0 0 0 0 0 0 0 0 127 127 127 126 126 126 117 117 117 118 118 118 118 118 118 118 118 118 118 118 118 118 118 118 118 118 118 125 125 125 0 0 0 0 0 0 29 29 29 27 27 27 27 27 27 27 27 27 
0 0 0 0 0 0 125 125 125 118 118 118 118 118 118 118 118 118 118 118 118 118 118 118 118 118 118 118 118 118 117 117 117 117 117 117 158 158 158 156 156 156 156 156 156 156 156 156 156 156 156 156 156 156 156 156 156 158 158 158 117 117 117 117 117 117 117 117 117 117 117 117 118 118 118 118 118 118 118 118 118 118 118 118 118 118 118 118 118 118 118 118 118 118 118 118 118 118 118 118 118 118 118 118 118 126 126 126 0 0 0 0 0 0 127 127 127 126 126 126 127 127 127 123 123 123 123 123 123 123 123 123 123 123 123 123 123 123 123 123 123 127 127 127 0 0 0 0 0 0 126 126 126 118 118 118 118 118 118 118 118 118 118 118 118 118 118 118 118 118 118 125 125 125 0 0 0 0 0 0 29 29 29 27 27 27 27 27 27 27 27 27 
0 0 0 0 0 0 125 125 125 118 118 118 118 118 118 118 118 118 118 118 118 118 118 118 118 118 118 118 118 118 118 118 118 117 117 117 161 161 161 158 158 158 158 158 158 158 158 158 158 158 158 158 158 158 158 158 158 161 161 161 117 117 117 118 118 118 118 118 118 118 118 118 118 118 118 118 118 118 118 118 118 118 118 118 118 118 118 118 118 118 118 118 118 118 118 118 118 118 118 118 118 118 118 118 118 125 125 125 0 0 0 0 0 0 125 125 125 118 118 118 120 120 120 116 116 116 116 116 116 116 116 116 116 116 116 116 116 116 116 116 116 123 123 123 0 0 0 0 0 0 127 127 127 126 126 126 117 117 117 118 118 118 118 118 118 118 118 118 118 118 118 126 126 126 0 0 0 0 0 0 29 29 29 27 27 27 27 27 27 27 27 27 
0 0 0 0 0 0 125 125 125 118 118 118 118 118 118 118 118 118 118 118 118 118 118 118 118 118 118 118 118 118 118 118 118 118 118 118 117 117 117 117 117 117 117 117 117 117 117 117 117 117 117 117 117 117 117 117 117 117 117 117 118 118 118 118 118 118 118 118 118 118 118 118 118 118 118 118 118 118 118 118 118 118 118 118 118 118 118 118 118 118 118 118 118 118 118 118 118 118 118 118 118 118 118 118 118 125 125 125 0 0 0 0 0 0 125 125 125 118 118 118 120 120 120 116 116 116 116 116 116 116 116 116 116 116 116 116 116 116 116 116 116 115 115 115 123 123 123 127 127 127 0 0 0 0 0 0 126 126 126 118 118 118 118 118 118 118 118 118 118 118 118 117 117 117 126 126 126 127 127 127 21 21 21 27 27 27 27 27 27 27 27 27 
0 0 0 0 0 0 125 125 125 118 118 118 118 118 118 118 118 118 118 118 118 118 118 118 118 118 118 118 118 118 118 118 118 118 118 118 118 118 118 118 118 118 118 118 118 118 118 118 118 118 118 118 118 118 118 118 118 118 118 118 118 118 118 118 118 118 118 118 118 118 118 118 118 118 118 118 118 118 118 118 118 118 118 118 118 118 118 118 118 118 118 118 118 118 118 118 118 118 118 118 118 118 118 118 118 126 126 126 0 0 0 0 0 0 127 127 127 127 127 127 119 119 119 115 115 115 116 116 116 116 116 116 116 116 116 116 116 116 116 116 116 116 116 116 116 116 116 123 123 123 0 0 0 0 0 0 125 125 125 118 118 118 118 118 118 118 118 118 118 118 118 118 118 118 118 118 118 124 124 124 23 23 23 29 29 29 27 27 27 27 27 27 
0 0 0 0 0 0 125 125 125 118 118 118 118 118 118 118 118 118 118 118 118 118 118 118 118 118 118 118 118 118 118 118 118 118 118 118 118 118 118 118 118 118 118 118 118 118 118 118 118 118 118 118 118 118 118 118 118 118 118 118 118 118 118 118 118 118 118 118 118 118 118 118 118 118 118 118 118 118 118 118 118 118 118 118 118 118 118 118 118 118 118 118 118 118 118 118 118 118 118 118 118 118 118 118 118 117 117 117 126 126 126 127 127 127 0 0 0 0 0 0 255 255 255 255 255 255 115 115 115 116 116 116 116 116 116 116 116 116 116 116 116 116 116 116 116 116 116 123 123 123 0 0 0 0 0 0 125 125 125 118 118 118 118 118 118 118 118 118 118 118 118 118 118 118 118 118 118 125 125 125 0 0 0 0 0 0 29 29 29 27 27 27 
0 0 0 0 0 0 126 126 126 118 118 118 118 118 118 118 118 118 118 118 118 118 118 118 118 118 118 118 118 118 118 118 118 118 118 118 118 118 118 118 118 118 118 118 118 118 118 118 118 118 118 118 118 118 118 118 118 118 118 118 118 118 118 118 118 118 118 118 118 118 118 118 118 118 118 118 118 118 118 118 118 118 118 118 118 118 118 118 118 118 118 118 118 118 118 118 118 118 118 118 118 118 118 118 118 118 118 118 118 118 118 125 125 125 0 0 0 0 0 0 255 255 255 255 255 255 114 114 114 115 115 115 115 115 115 115 115 115 115 115 115 115 115 115 120 120 120 127 127 127 0 0 0 0 0 0 125 125 125 118 118 118 118 118 118 118 118 118 118 118 118 118 118 118 118 118 118 125 125 125 0 0 0 0 0 0 29 29 29 27 27 27 
125 125 125 126 126 126 117 117 117 118 118 118 118 118 118 118 118 118 118 118 118 118 118 118 118 118 118 118 118 118 118 118 118 118 118 118 118 118 118 118 118 118 118 118 118 118 118 118 118 118 118 118 118 118 118 118 118 118 118 118 118 118 118 118 118 118 118 118 118 118 118 118 118 118 118 118 118 118 118 118 118 118 118 118 118 118 118 118 118 118 118 118 118 118 118 118 118 118 118 118 118 118 118 118 118 118 118 118 118 118 118 125 125 125 0 0 0 0 0 0 125 125 125 117 117 117 255 255 255 254 254 254 254 254 254 254 254 254 254 254 254 255 255 255 118 118 118 126 126 126 0 0 0 0 0 0 125 125 125 118 118 118 118 118 118 118 118 118 118 118 118 118 118 118 118 118 118 125 125 125 0 0 0 0 0 0 29 29 29 27 27 27 
118 118 118 118 118 118 118 118 118 118 118 118 118 118 118 118 118 118 118 118 118 118 118 118 118 118 118 118 118 118 118 118 118 118 118 118 118 118 118 118 118 118 118 118 118 118 118 118 118 118 118 118 118 118 118 118 118 118 118 118 118 118 118 118 118 118 118 118 118 117 117 117 126 126 126 125 125 125 125 125 125 125 125 125 125 125 125 125 125 125 125 125 125 126 126 126 117 117 117 118 118 118 118 118 118 118 118 118 118 118 118 125 125 125 0 0 0 0 0 0 125 125 125 117 117 117 254 254 254 254 254 254 254 254 254 254 254 254 254 254 254 254 254 254 117 117 117 125 125 125 0 0 0 0 0 0 125 125 125 118 118 118 118 118 118 118 118 118 118 118 118 118 118 118 118 118 118 125 125 125 0 0 0 0 0 0 29 29 29 27 27 27 
118 118 118 118 118 118 118 118 118 118 118 118 118 118 118 118 118 118 118 118 118 118 118 118 118 118 118 118 118 118 118 118 118 118 118 118 118 118 118 118 118 118 118 118 118 118 118 118 118 118 118 118 118 118 118 118 118 118 118 118 118 118 118 118 118 118 118 118 118 126 126 126 0 0 0 0 0 0 0 0 0 0 0 0 0 0 0 0 0 0 0 0 0 0 0 0 126 126 126 118 118 118 118 118 118 118 118 118 118 118 118 125 125 125 0 0 0 0 0 0 125 125 125 118 118 118 117 117 117 117 117 117 117 117 117 117 117 117 117 117 117 117 117 117 118 118 118 125 125 125 0 0 0 0 0 0 125 125 125 118 118 118 118 118 118 118 118 118 118 118 118 118 118 118 118 118 118 125 125 125 0 0 0 0 0 0 29 29 29 27 27 27 
125 125 125 125 125 125 125 125 125 126 126 126 117 117 117 118 118 118 118 118 118 118 118 118 118 118 118 118 118 118 118 118 118 118 118 118 118 118 118 118 118 118 118 118 118 118 118 118 118 118 118 118 118 118 118 118 118 117 117 117 126 126 126 125 125 125 125 125 125 128 128 128 0 0 0 0 0 0 0 0 0 0 0 0 0 0 0 0 0 0 0 0 0 0 0 0 127 127 127 125 125 125 125 125 125 126 126 126 117 117 117 126 126 126 0 0 0 0 0 0 127 127 127 125 125 125 125 125 125 125 125 125 125 125 125 125 125 125 125 125 125 125 125 125 125 125 125 127 127 127 0 0 0 0 0 0 127 127 127 125 125 125 125 125 125 126 126 126 117 117 117 118 118 118 118 118 118 125 125 125 0 0 0 0 0 0 29 29 29 27 27 27 
0 0 0 0 0 0 0 0 0 0 0 0 126 126 126 118 118 118 118 118 118 118 118 118 118 118 118 118 118 118 118 118 118 118 118 118 118 118 118 118 118 118 118 118 118 118 118 118 118 118 118 118 118 118 118 118 118 126 126 126 0 0 0 0 0 0 0 0 0 0 0 0 159 159 159 157 157 157 157 157 157 157 157 157 157 157 157 159 159 159 0 0 0 0 0 0 0 0 0 0 0 0 0 0 0 0 0 0 126 126 126 117 117 117 126 126 126 127 127 127 0 0 0 0 0 0 0 0 0 0 0 0 0 0 0 0 0 0 0 0 0 0 0 0 0 0 0 0 0 0 127 127 127 127 127 127 0 0 0 0 0 0 0 0 0 0 0 0 126 126 126 118 118 118 118 118 118 125 125 125 0 0 0 0 0 0 29 29 29 27 27 27 
0 0 0 0 0 0 0 0 0 0 0 0 126 126 126 118 118 118 118 118 118 118 118 118 118 118 118 118 118 118 118 118 118 118 118 118 118 118 118 118 118 118 118 118 118 118 118 118 118 118 118 117 117 117 126 126 126 128 128 128 0 0 0 0 0 0 0 0 0 0 0 0 159 159 159 157 157 157 157 157 157 157 157 157 157 157 157 159 159 159 0 0 0 0 0 0 0 0 0 0 0 0 0 0 0 0 0 0 127 127 127 126 126 126 117 117 117 126 126 126 0 0 0 0 0 0 0 0 0 0 0 0 0 0 0 0 0 0 0 0 0 0 0 0 0 0 0 0 0 0 127 127 127 127 127 127 0 0 0 0 0 0 0 0 0 0 0 0 127 127 127 126 126 126 117 117 117 125 125 125 0 0 0 0 0 0 29 29 29 27 27 27 
125 125 125 126 126 126 127 127 127 123 123 123 119 119 119 123 123 123 118 118 118 118 118 118 118 118 118 118 118 118 118 118 118 118 118 118 118 118 118 118 118 118 118 118 118 118 118 118 118 118 118 126 126 126 0 0 0 0 0 0 159 159 159 157 157 157 157 157 157 159 159 159 0 0 0 0 0 0 0 0 0 0 0 0 0 0 0 0 0 0 0 0 0 0 0 0 0 0 0 0 0 0 0 0 0 0 0 0 0 0 0 0 0 0 126 126 126 117 117 117 126 126 126 125 125 125 125 125 125 125 125 125 125 125 125 125 125 125 125 125 125 125 125 125 125 125 125 127 127 127 0 0 0 0 0 0 0 0 0 0 0 0 0 0 0 0 0 0 0 0 0 0 0 0 126 126 126 125 125 125 0 0 0 0 0 0 29 29 29 27 27 27 
118 118 118 119 119 119 120 120 120 116 116 116 116 116 116 120 120 120 119 119 119 118 118 118 118 118 118 118 118 118 118 118 118 118 118 118 118 118 118 118 118 118 118 118 118 117 117 117 126 126 126 128 128 128 0 0 0 0 0 0 157 157 157 153 153 153 157 157 157 159 159 159 0 0 0 0 0 0 0 0 0 0 0 0 0 0 0 0 0 0 1 1 1 0 0 0 0 0 0 0 0 0 0 0 0 0 0 0 0 0 0 0 0 0 127 127 127 125 125 125 125 125 125 126 126 126 117 117 117 118 118 118 118 118 118 118 118 118 118 118 118 117 117 117 126 126 126 127 127 127 0 0 0 0 0 0 0 0 0 0 0 0 0 0 0 0 0 0 0 0 0 0 0 0 125 125 125 125 125 125 0 0 0 0 0 0 29 29 29 27 27 27 
120 120 120 120 120 120 116 116 116 116 116 116 116 116 116 116 116 116 120 120 120 123 123 123 118 118 118 118 118 118 118 118 118 118 118 118 118 118 118 118 118 118 118 118 118 126 126 126 0 0 0 0 0 0 159 159 159 157 157 157 153 153 153 157 157 157 0 0 0 0 0 0 222 222 222 216 216 216 216 216 216 216 216 216 216 216 216 222 222 222 0 0 0 0 0 0 127 127 127 127 127 127 0 0 0 0 0 0 0 0 0 0 0 0 0 0 0 0 0 0 0 0 0 0 0 0 126 126 126 118 118 118 118 118 118 118 118 118 118 118 118 126 126 126 0 0 0 0 0 0 0 0 0 0 0 0 0 0 0 0 0 0 0 0 0 0 0 0 0 0 0 0 0 0 125 125 125 125 125 125 0 0 0 0 0 0 29 29 29 27 27 27 
123 123 123 123 123 123 115 115 115 116 116 116 116 116 116 116 116 116 115 115 115 119 119 119 119 119 119 118 118 118 118 118 118 118 118 118 118 118 118 117 117 117 126 126 126 127 127 127 0 0 0 0 0 0 157 157 157 154 154 154 154 154 154 157 157 157 0 0 0 0 0 0 217 217 217 210 210 210 210 210 210 210 210 210 210 210 210 216 216 216 0 0 0 0 0 0 125 125 125 125 125 125 0 0 0 0 0 0 0 0 0 0 0 0 0 0 0 0 0 0 0 0 0 0 0 0 127 127 127 125 125 125 125 125 125 125 125 125 125 125 125 127 127 127 0 0 0 0 0 0 0 0 0 1 1 1 0 0 0 0 0 0 1 1 1 0 0 0 0 0 0 0 0 0 127 127 127 127 127 127 0 0 0 0 0 0 30 30 30 29 29 29 
0 0 0 0 0 0 123 123 123 116 116 116 116 116 116 115 115 115 255 255 255 255 255 255 117 117 117 118 118 118 118 118 118 118 118 118 118 118 118 126 126 126 0 0 0 0 0 0 0 0 0 0 0 0 157 157 157 154 154 154 154 154 154 149 149 149 220 220 220 217 217 217 209 209 209 210 210 210 210 210 210 210 210 210 210 210 210 216 216 216 0 0 0 0 0 0 125 125 125 125 125 125 0 0 0 0 0 0 0 0 0 0 0 0 159 159 159 159 159 159 0 0 0 0 0 0 0 0 0 0 0 0 0 0 0 0 0 0 0 0 0 0 0 0 127 127 127 127 127 127 0 0 0 0 0 0 222 222 222 222 222 222 0 0 0 0 0 0 0 0 0 0 0 0 0 0 0 0 0 0 127 127 127 127 127 127 0 0 0 0 0 0 
0 0 0 0 0 0 128 128 128 124 124 124 115 115 115 114 114 114 254 254 254 254 254 254 117 117 117 118 118 118 118 118 118 118 118 118 118 118 118 125 125 125 0 0 0 0 0 0 0 0 0 0 0 0 157 157 157 153 153 153 157 157 157 154 154 154 213 213 213 210 210 210 210 210 210 210 210 210 210 210 210 210 210 210 210 210 210 216 216 216 0 0 0 0 0 0 125 125 125 125 125 125 0 0 0 1 1 1 0 0 0 0 0 0 157 157 157 157 157 157 0 0 0 0 0 0 0 0 0 0 0 0 0 0 0 0 0 0 0 0 0 0 0 0 125 125 125 125 125 125 0 0 0 0 0 0 216 216 216 217 217 217 0 0 0 0 0 0 1 1 1 0 0 0 0 0 0 0 0 0 126 126 126 126 126 126 0 0 0 0 0 0 
115 115 115 122 122 122 0 0 0 0 0 0 255 255 255 254 254 254 251 251 251 254 254 254 117 117 117 118 118 118 118 118 118 118 118 118 118 118 118 125 125 125 0 0 0 0 0 0 159 159 159 157 157 157 153 153 153 157 157 157 0 0 0 0 0 0 217 217 217 210 210 210 210 210 210 210 210 210 210 210 210 210 210 210 210 210 210 216 216 216 0 0 0 0 0 0 125 125 125 125 125 125 0 0 0 0 0 0 222 222 222 220 220 220 149 149 149 153 153 153 157 157 157 157 157 157 157 157 157 157 157 157 157 157 157 159 159 159 0 0 0 0 0 0 125 125 125 125 125 125 0 0 0 0 0 0 216 216 216 209 209 209 217 217 217 222 222 222 0 0 0 0 0 0 0 0 0 0 0 0 127 127 127 127 127 127 0 0 0 0 0 0 
108 108 108 115 115 115 0 0 0 0 0 0 255 255 255 252 252 252 252 252 252 254 254 254 117 117 117 118 118 118 118 118 118 117 117 117 126 126 126 128 128 128 0 0 0 0 0 0 157 157 157 154 154 154 154 154 154 157 157 157 0 0 0 0 0 0 216 216 216 210 210 210 207 207 207 207 207 207 207 207 207 207 207 207 207 207 207 214 214 214 0 0 0 0 0 0 125 125 125 125 125 125 0 0 0 0 0 0 216 216 216 213 213 213 150 150 150 154 154 154 154 154 154 154 154 154 154 154 154 154 154 154 154 154 154 157 157 157 0 0 0 0 0 0 125 125 125 125 125 125 0 0 0 0 0 0 216 216 216 210 210 210 210 210 210 216 216 216 0 0 0 0 0 0 0 0 0 0 0 0 123 123 123 123 123 123 0 0 0 0 0 0 
108 108 108 115 115 115 0 0 0 0 0 0 255 255 255 252 252 252 252 252 252 254 254 254 117 117 117 118 118 118 118 118 118 126 126 126 0 0 0 0 0 0 159 159 159 157 157 157 153 153 153 154 154 154 154 154 154 157 157 157 0 0 0 0 0 0 216 216 216 207 207 207 253 253 253 253 253 253 253 253 253 253 253 253 253 253 253 255 255 255 0 0 0 0 0 0 125 125 125 125 125 125 0 0 0 0 0 0 216 216 216 213 213 213 150 150 150 154 154 154 154 154 154 154 154 154 154 154 154 154 154 154 154 154 154 157 157 157 0 0 0 0 0 0 125 125 125 125 125 125 0 0 0 0 0 0 216 216 216 210 210 210 210 210 210 216 216 216 0 0 0 0 0 0 127 127 127 126 126 126 119 119 119 123 123 123 0 0 0 0 0 0 
108 108 108 115 115 115 0 0 0 0 0 0 255 255 255 252 252 252 252 252 252 254 254 254 117 117 117 118 118 118 118 118 118 125 125 125 0 0 0 0 0 0 157 157 157 154 154 154 154 154 154 154 154 154 154 154 154 157 157 157 0 0 0 0 0 0 214 214 214 204 204 204 253 253 253 252 252 252 252 252 252 252 252 252 252 252 252 255 255 255 0 0 0 0 0 0 125 125 125 125 125 125 0 0 0 0 0 0 214 214 214 210 210 210 150 150 150 154 154 154 150 150 150 150 150 150 150 150 150 150 150 150 154 154 154 157 157 157 0 0 0 0 0 0 125 125 125 125 125 125 0 0 0 0 0 0 214 214 214 207 207 207 207 207 207 214 214 214 0 0 0 0 0 0 126 126 126 119 119 119 120 120 120 123 123 123 0 0 0 0 0 0 
108 108 108 115 115 115 0 0 0 0 0 0 255 255 255 252 252 252 252 252 252 254 254 254 117 117 117 118 118 118 118 118 118 125 125 125 0 0 0 0 0 0 157 157 157 154 154 154 154 154 154 154 154 154 154 154 154 157 157 157 0 0 0 0 0 0 255 255 255 253 253 253 252 252 252 252 252 252 252 252 252 252 252 252 252 252 252 255 255 255 0 0 0 0 0 0 125 125 125 125 125 125 0 0 0 0 0 0 255 255 255 253 253 253 147 147 147 150 150 150 217 217 217 213 213 213 213 213 213 217 217 217 150 150 150 157 157 157 0 0 0 0 0 0 125 125 125 125 125 125 0 0 0 0 0 0 255 255 255 253 253 253 253 253 253 255 255 255 0 0 0 0 0 0 127 127 127 120 120 120 116 116 116 123 123 123 0 0 0 0 0 0 
108 108 108 115 115 115 0 0 0 0 0 0 255 255 255 251 251 251 254 254 254 255 255 255 117 117 117 118 118 118 118 118 118 125 125 125 0 0 0 0 0 0 157 157 157 154 154 154 154 154 154 154 154 154 154 154 154 157 157 157 0 0 0 0 0 0 255 255 255 252 252 252 252 252 252 252 252 252 252 252 252 252 252 252 252 252 252 255 255 255 0 0 0 0 0 0 125 125 125 125 125 125 0 0 0 0 0 0 255 255 255 253 253 253 144 144 144 147 147 147 213 213 213 210 210 210 210 210 210 213 213 213 147 147 147 153 153 153 0 0 0 0 0 0 125 125 125 125 125 125 0 0 0 0 0 0 255 255 255 252 252 252 252 252 252 255 255 255 0 0 0 0 0 0 123 123 123 116 116 116 120 120 120 127 127 127 0 0 0 0 0 0 
108 108 108 115 115 115 0 0 0 0 0 0 255 255 255 254 254 254 114 114 114 119 119 119 119 119 119 118 118 118 118 118 118 125 125 125 0 0 0 0 0 0 157 157 157 154 154 154 154 154 154 154 154 154 154 154 154 157 157 157 0 0 0 0 0 0 255 255 255 252 252 252 252 252 252 252 252 252 252 252 252 252 252 252 252 252 252 255 255 255 0 0 0 0 0 0 255 255 255 255 255 255 0 0 0 0 0 0 255 255 255 253 253 253 211 211 211 213 213 213 210 210 210 210 210 210 210 210 210 210 210 210 213 213 213 220 220 220 0 0 0 0 0 0 255 255 255 255 255 255 0 0 0 0 0 0 255 255 255 252 252 252 252 252 252 255 255 255 0 0 0 0 0 0 123 123 123 120 120 120 119 119 119 126 126 126 0 0 0 0 0 0 
108 108 108 115 115 115 0 0 0 0 0 0 255 255 255 255 255 255 115 115 115 120 120 120 118 118 118 118 118 118 118 118 118 125 125 125 0 0 0 0 0 0 157 157 157 154 154 154 154 154 154 154 154 154 154 154 154 157 157 157 0 0 0 0 0 0 255 255 255 252 252 252 252 252 252 252 252 252 252 252 252 252 252 252 252 252 252 255 255 255 0 0 0 0 0 0 255 255 255 255 255 255 0 0 0 0 0 0 255 255 255 253 253 253 207 207 207 210 210 210 210 210 210 210 210 210 210 210 210 210 210 210 210 210 210 216 216 216 0 0 0 0 0 0 255 255 255 255 255 255 0 0 0 0 0 0 255 255 255 252 252 252 252 252 252 255 255 255 0 0 0 0 0 0 127 127 127 123 123 123 118 118 118 125 125 125 0 0 0 0 0 0 
108 108 108 115 115 115 0 0 0 0 0 0 122 122 122 115 115 115 116 116 116 120 120 120 118 118 118 118 118 118 118 118 118 125 125 125 0 0 0 0 0 0 157 157 157 154 154 154 154 154 154 154 154 154 154 154 154 157 157 157 0 0 0 0 0 0 255 255 255 252 252 252 252 252 252 252 252 252 252 252 252 252 252 252 252 252 252 255 255 255 0 0 0 0 0 0 153 153 153 153 153 153 0 0 0 0 0 0 255 255 255 253 253 253 207 207 207 210 210 210 210 210 210 210 210 210 210 210 210 210 210 210 210 210 210 216 216 216 0 0 0 0 0 0 153 153 153 153 153 153 0 0 0 0 0 0 255 255 255 252 252 252 252 252 252 255 255 255 0 0 0 0 0 0 126 126 126 118 118 118 118 118 118 125 125 125 0 0 0 0 0 0 
108 108 108 115 115 115 0 0 0 0 0 0 123 123 123 116 116 116 116 116 116 120 120 120 118 118 118 118 118 118 118 118 118 125 125 125 0 0 0 0 0 0 157 157 157 154 154 154 154 154 154 154 154 154 154 154 154 157 157 157 0 0 0 0 0 0 255 255 255 255 255 255 251 251 251 252 252 252 252 252 252 252 252 252 252 252 252 255 255 255 0 0 0 0 0 0 162 162 162 162 162 162 0 0 0 0 0 0 255 255 255 253 253 253 207 207 207 210 210 210 210 210 210 210 210 210 210 210 210 210 210 210 210 210 210 217 217 217 0 0 0 0 0 0 162 162 162 162 162 162 0 0 0 0 0 0 255 255 255 251 251 251 253 253 253 255 255 255 0 0 0 0 0 0 125 125 125 117 117 117 126 126 126 127 127 127 0 0 0 0 0 0 
108 108 108 115 115 115 0 0 0 0 0 0 123 123 123 116 116 116 116 116 116 120 120 120 118 118 118 118 118 118 118 118 118 125 125 125 0 0 0 0 0 0 157 157 157 154 154 154 154 154 154 154 154 154 154 154 154 153 153 153 157 157 157 159 159 159 0 0 0 0 0 0 255 255 255 252 252 252 252 252 252 252 252 252 252 252 252 251 251 251 255 255 255 255 255 255 0 0 0 0 0 0 255 255 255 255 255 255 203 203 203 207 207 207 210 210 210 210 210 210 210 210 210 210 210 210 210 210 210 210 210 210 210 210 210 209 209 209 217 217 217 223 223 223 0 0 0 0 0 0 255 255 255 255 255 255 251 251 251 253 253 253 141 141 141 150 150 150 0 0 0 0 0 0 125 125 125 126 126 126 0 0 0 0 0 0 30 30 30 29 29 29 
115 115 115 122 122 122 0 0 0 0 0 0 123 123 123 115 115 115 123 123 123 127 127 127 118 118 118 118 118 118 118 118 118 125 125 125 0 0 0 0 0 0 157 157 157 154 154 154 154 154 154 154 154 154 154 154 154 154 154 154 154 154 154 157 157 157 0 0 0 0 0 0 255 255 255 253 253 253 253 253 253 253 253 253 253 253 253 253 253 253 253 253 253 255 255 255 0 0 0 0 0 0 255 255 255 253 253 253 207 207 207 210 210 210 210 210 210 210 210 210 210 210 210 210 210 210 210 210 210 210 210 210 210 210 210 210 210 210 210 210 210 217 217 217 0 0 0 0 0 0 255 255 255 253 253 253 253 253 253 253 253 253 147 147 147 157 157 157 0 0 0 0 0 0 125 125 125 125 125 125 0 0 0 0 0 0 29 29 29 27 27 27 
0 0 0 0 0 0 128 128 128 123 123 123 115 115 115 123 123 123 0 0 0 0 0 0 126 126 126 118 118 118 118 118 118 125 125 125 0 0 0 0 0 0 157 157 157 154 154 154 154 154 154 154 154 154 154 154 154 154 154 154 154 154 154 153 153 153 157 157 157 157 157 157 147 147 147 148 148 148 148 148 148 144 144 144 211 211 211 207 207 207 207 207 207 206 206 206 217 217 217 217 217 217 206 206 206 207 207 207 210 210 210 210 210 210 210 210 210 210 210 210 210 210 210 210 210 210 210 210 210 210 210 210 210 210 210 210 210 210 210 210 210 209 209 209 217 217 217 217 217 217 206 206 206 211 211 211 144 144 144 147 147 147 154 154 154 157 157 157 0 0 0 0 0 0 125 125 125 125 125 125 0 0 0 0 0 0 29 29 29 27 27 27 
0 0 0 0 0 0 123 123 123 116 116 116 120 120 120 127 127 127 0 0 0 0 0 0 125 125 125 118 118 118 118 118 118 126 126 126 0 0 0 0 0 0 157 157 157 154 154 154 154 154 154 154 154 154 154 154 154 154 154 154 154 154 154 154 154 154 154 154 154 154 154 154 150 150 150 150 150 150 150 150 150 147 147 147 213 213 213 210 210 210 210 210 210 210 210 210 210 210 210 210 210 210 210 210 210 210 210 210 210 210 210 210 210 210 210 210 210 210 210 210 210 210 210 210 210 210 210 210 210 210 210 210 210 210 210 210 210 210 210 210 210 210 210 210 210 210 210 210 210 210 210 210 210 213 213 213 147 147 147 150 150 150 154 154 154 157 157 157 0 0 0 0 0 0 127 127 127 127 127 127 0 0 0 0 0 0 29 29 29 27 27 27 
125 125 125 126 126 126 119 119 119 120 120 120 119 119 119 126 126 126 0 0 0 0 0 0 125 125 125 118 118 118 118 118 118 117 117 117 126 126 126 127 127 127 149 149 149 154 154 154 154 154 154 154 154 154 154 154 154 154 154 154 154 154 154 154 154 154 154 154 154 150 150 150 217 217 217 213 213 213 213 213 213 213 213 213 210 210 210 210 210 210 210 210 210 210 210 210 210 210 210 210 210 210 210 210 210 210 210 210 210 210 210 210 210 210 210 210 210 210 210 210 210 210 210 210 210 210 210 210 210 210 210 210 210 210 210 210 210 210 210 210 210 210 210 210 210 210 210 210 210 210 210 210 210 210 210 210 213 213 213 217 217 217 150 150 150 157 157 157 0 0 0 0 0 0 0 0 0 0 0 0 30 30 30 29 29 29 27 27 27 27 27 27 
118 118 118 118 118 118 123 123 123 123 123 123 126 126 126 127 127 127 0 0 0 0 0 0 126 126 126 118 118 118 118 118 118 118 118 118 118 118 118 123 123 123 151 151 151 157 157 157 153 153 153 154 154 154 154 154 154 154 154 154 154 154 154 154 154 154 150 150 150 147 147 147 213 213 213 210 210 210 210 210 210 210 210 210 210 210 210 210 210 210 210 210 210 210 210 210 210 210 210 210 210 210 210 210 210 210 210 210 210 210 210 210 210 210 210 210 210 210 210 210 210 210 210 210 210 210 213 213 213 213 213 213 217 217 217 217 217 217 209 209 209 210 210 210 210 210 210 210 210 210 210 210 210 210 210 210 210 210 210 213 213 213 150 150 150 157 157 157 0 0 0 0 0 0 0 0 0 0 0 0 29 29 29 27 27 27 27 27 27 27 27 27 
118 118 118 118 118 118 118 118 118 126 126 126 0 0 0 0 0 0 127 127 127 126 126 126 117 117 117 118 118 118 118 118 118 118 118 118 118 118 118 126 126 126 0 0 0 0 0 0 157 157 157 154 154 154 154 154 154 154 154 154 154 154 154 150 150 150 217 217 217 213 213 213 210 210 210 210 210 210 210 210 210 210 210 210 210 210 210 210 210 210 210 210 210 210 210 210 210 210 210 210 210 210 210 210 210 210 210 210 210 210 210 210 210 210 210 210 210 210 210 210 210 210 210 213 213 213 147 147 147 154 154 154 0 0 0 0 0 0 217 217 217 210 210 210 210 210 210 210 210 210 210 210 210 210 210 210 210 210 210 213 213 213 150 150 150 157 157 157 0 0 0 0 0 0 0 0 0 0 0 0 29 29 29 27 27 27 27 27 27 27 27 27 
125 125 125 125 125 125 125 125 125 127 127 127 0 0 0 0 0 0 126 126 126 118 118 118 118 118 118 118 118 118 118 118 118 118 118 118 118 118 118 126 126 126 0 0 0 0 0 0 157 157 157 154 154 154 154 154 154 154 154 154 154 154 154 150 150 150 213 213 213 210 210 210 210 210 210 210 210 210 210 210 210 210 210 210 210 210 210 210 210 210 210 210 210 210 210 210 210 210 210 210 210 210 210 210 210 210 210 210 210 210 210 210 210 210 210 210 210 210 210 210 210 210 210 213 213 213 147 147 147 154 154 154 0 0 0 0 0 0 217 217 217 210 210 210 210 210 210 210 210 210 210 210 210 210 210 210 210 210 210 213 213 213 150 150 150 157 157 157 0 0 0 0 0 0 0 0 0 0 0 0 29 29 29 27 27 27 27 27 27 27 27 27 
0 0 0 0 0 0 0 0 0 0 0 0 127 127 127 126 126 126 117 117 117 118 118 118 118 118 118 118 118 118 118 118 118 118 118 118 118 118 118 117 117 117 126 126 126 127 127 127 149 149 149 154 154 154 154 154 154 154 154 154 154 154 154 150 150 150 213 213 213 210 210 210 210 210 210 210 210 210 210 210 210 210 210 210 210 210 210 210 210 210 210 210 210 210 210 210 210 210 210 210 210 210 210 210 210 210 210 210 210 210 210 210 210 210 210 210 210 210 210 210 210 210 210 210 210 210 213 213 213 213 213 213 217 217 217 217 217 217 209 209 209 210 210 210 210 210 210 210 210 210 210 210 210 210 210 210 210 210 210 213 213 213 150 150 150 149 149 149 127 127 127 127 127 127 0 0 0 0 0 0 29 29 29 27 27 27 27 27 27 27 27 27 
0 0 0 0 0 0 0 0 0 0 0 0 127 127 127 126 126 126 117 117 117 118 118 118 118 118 118 118 118 118 118 118 118 118 118 118 118 118 118 118 118 118 118 118 118 123 123 123 151 151 151 157 157 157 153 153 153 154 154 154 154 154 154 150 150 150 213 213 213 210 210 210 210 210 210 210 210 210 210 210 210 210 210 210 213 213 213 213 213 213 217 217 217 216 216 216 216 216 216 216 216 216 216 216 216 216 216 216 216 216 216 216 216 216 216 216 216 216 216 216 216 216 216 216 216 216 216 216 216 216 216 216 216 216 216 217 217 217 209 209 209 210 210 210 210 210 210 210 210 210 210 210 210 210 210 210 210 210 210 213 213 213 154 154 154 151 151 151 123 123 123 125 125 125 0 0 0 0 0 0 29 29 29 27 27 27 27 27 27 27 27 27 
29 29 29 29 29 29 29 29 29 30 30 30 0 0 0 0 0 0 126 126 126 118 118 118 118 118 118 118 118 118 118 118 118 118 118 118 118 118 118 118 118 118 118 118 118 126 126 126 0 0 0 0 0 0 157 157 157 154 154 154 154 154 154 150 150 150 213 213 213 210 210 210 210 210 210 210 210 210 210 210 210 213 213 213 147 147 147 154 154 154 0 0 0 0 0 0 0 0 0 0 0 0 0 0 0 0 0 0 0 0 0 0 0 0 0 0 0 0 0 0 0 0 0 0 0 0 0 0 0 0 0 0 0 0 0 0 0 0 217 217 217 210 210 210 210 210 210 210 210 210 210 210 210 210 210 210 210 210 210 217 217 217 0 0 0 0 0 0 126 126 126 125 125 125 0 0 0 0 0 0 29 29 29 27 27 27 27 27 27 27 27 27 
27 27 27 27 27 27 27 27 27 29 29 29 0 0 0 0 0 0 127 127 127 124 124 124 125 125 125 126 126 126 117 117 117 118 118 118 118 118 118 118 118 118 118 118 118 126 126 126 0 0 0 0 0 0 159 159 159 157 157 157 153 153 153 150 150 150 217 217 217 213 213 213 210 210 210 210 210 210 210 210 210 213 213 213 147 147 147 153 153 153 0 0 0 1 1 1 0 0 0 0 0 0 0 0 0 0 0 0 0 0 0 0 0 0 0 0 0 0 0 0 0 0 0 0 0 0 0 0 0 0 0 0 1 1 1 0 0 0 216 216 216 210 210 210 210 210 210 210 210 210 210 210 210 210 210 210 213 213 213 220 220 220 0 0 0 0 0 0 125 125 125 125 125 125 0 0 0 0 0 0 29 29 29 27 27 27 27 27 27 27 27 27 
27 27 27 27 27 27 27 27 27 27 27 27 29 29 29 29 29 29 21 21 21 23 23 23 0 0 0 0 0 0 126 126 126 118 118 118 118 118 118 118 118 118 118 118 118 117 117 117 126 126 126 128 128 128 0 0 0 0 0 0 157 157 157 154 154 154 150 150 150 147 147 147 213 213 213 210 210 210 210 210 210 210 210 210 213 213 213 220 220 220 0 0 0 0 0 0 222 222 222 216 216 216 216 216 216 216 216 216 216 216 216 214 214 214 255 255 255 255 255 255 214 214 214 216 216 216 216 216 216 222 222 222 0 0 0 0 0 0 216 216 216 210 210 210 210 210 210 210 210 210 210 210 210 213 213 213 147 147 147 153 153 153 0 0 0 0 0 0 125 125 125 125 125 125 0 0 0 0 0 0 29 29 29 27 27 27 27 27 27 27 27 27 
27 27 27 27 27 27 27 27 27 27 27 27 27 27 27 27 27 27 27 27 27 29 29 29 0 0 0 0 0 0 127 127 127 125 125 125 125 125 125 126 126 126 117 117 117 118 118 118 118 118 118 126 126 126 0 0 0 0 0 0 159 159 159 157 157 157 153 153 153 150 150 150 217 217 217 213 213 213 210 210 210 210 210 210 210 210 210 217 217 217 0 0 0 0 0 0 222 222 222 217 217 217 206 206 206 207 207 207 207 207 207 204 204 204 253 253 253 253 253 253 204 204 204 206 206 206 217 217 217 222 222 222 0 0 0 0 0 0 217 217 217 210 210 210 210 210 210 210 210 210 213 213 213 216 216 216 153 153 153 159 159 159 0 0 0 0 0 0 127 127 127 127 127 127 0 0 0 0 0 0 29 29 29 27 27 27 27 27 27 27 27 27 
27 27 27 27 27 27 27 27 27 27 27 27 27 27 27 27 27 27 27 27 27 27 27 27 29 29 29 30 30 30 0 0 0 0 0 0 0 0 0 0 0 0 126 126 126 118 118 118 118 118 118 117 117 117 126 126 126 128 128 128 0 0 0 0 0 0 157 157 157 154 154 154 150 150 150 147 147 147 213 213 213 210 210 210 210 210 210 209 209 209 217 217 217 222 222 222 0 0 0 0 0 0 255 255 255 253 253 253 253 253 253 253 253 253 252 252 252 252 252 252 253 253 253 255 255 255 0 0 0 0 0 0 222 222 222 217 217 217 209 209 209 210 210 210 210 210 210 213 213 213 147 147 147 153 153 153 0 0 0 0 0 0 128 128 128 127 127 127 0 0 0 0 0 0 30 30 30 29 29 29 27 27 27 27 27 27 27 27 27 27 27 27 
27 27 27 27 27 27 27 27 27 27 27 27 27 27 27 27 27 27 27 27 27 27 27 27 27 27 27 29 29 29 0 0 0 0 0 0 0 0 0 0 0 0 127 127 127 125 125 125 125 125 125 125 125 125 125 125 125 127 127 127 0 0 0 0 0 0 151 151 151 149 149 149 157 157 157 153 153 153 216 216 216 213 213 213 210 210 210 210 210 210 210 210 210 217 217 217 0 0 0 0 0 0 255 255 255 253 253 253 253 253 253 253 253 253 253 253 253 253 253 253 253 253 253 255 255 255 0 0 0 0 0 0 217 217 217 210 210 210 210 210 210 210 210 210 213 213 213 216 216 216 153 153 153 159 159 159 0 0 0 0 0 0 127 127 127 127 127 127 0 0 0 0 0 0 29 29 29 27 27 27 27 27 27 27 27 27 27 27 27 27 27 27 
27 27 27 27 27 27 27 27 27 27 27 27 27 27 27 27 27 27 27 27 27 27 27 27 27 27 27 27 27 27 29 29 29 30 30 30 0 0 0 0 0 0 0 0 0 0 0 0 0 0 0 0 0 0 0 0 0 0 0 0 0 0 0 0 0 0 127 127 127 127 127 127 0 0 0 0 0 0 153 153 153 147 147 147 213 213 213 210 210 210 210 210 210 209 209 209 217 217 217 217 217 217 206 206 206 207 207 207 207 207 207 207 207 207 207 207 207 207 207 207 207 207 207 206 206 206 217 217 217 217 217 217 209 209 209 210 210 210 210 210 210 213 213 213 147 147 147 153 153 153 0 0 0 0 0 0 0 0 0 0 0 0 0 0 0 0 0 0 30 30 30 29 29 29 27 27 27 27 27 27 27 27 27 27 27 27 27 27 27 27 27 27 
27 27 27 27 27 27 27 27 27 27 27 27 27 27 27 27 27 27 27 27 27 27 27 27 27 27 27 27 27 27 29 29 29 30 30 30 0 0 0 0 0 0 0 0 0 0 0 0 0 0 0 0 0 0 0 0 0 0 0 0 0 0 0 0 0 0 127 127 127 127 127 127 0 0 0 0 0 0 151 151 151 145 145 145 221 221 221 217 217 217 213 213 213 213 213 213 213 213 213 213 213 213 210 210 210 210 210 210 210 210 210 210 210 210 210 210 210 210 210 210 210 210 210 210 210 210 210 210 210 210 210 210 213 213 213 213 213 213 217 217 217 220 220 220 153 153 153 159 159 159 0 0 0 0 0 0 0 0 0 0 0 0 0 0 0 0 0 0 29 29 29 27 27 27 27 27 27 27 27 27 27 27 27 27 27 27 27 27 27 27 27 27 
27 27 27 27 27 27 27 27 27 27 27 27 27 27 27 27 27 27 27 27 27 27 27 27 27 27 27 29 29 29 0 0 0 0 0 0 127 127 127 125 125 125 125 125 125 125 125 125 125 125 125 125 125 125 125 125 125 127 127 127 0 0 0 0 0 0 0 0 0 0 0 0 0 0 0 0 0 0 127 127 127 127 127 127 0 0 0 0 0 0 154 154 154 150 150 150 150 150 150 147 147 147 213 213 213 210 210 210 210 210 210 210 210 210 210 210 210 210 210 210 210 210 210 210 210 210 210 210 210 213 213 213 147 147 147 154 154 154 0 0 0 0 0 0 0 0 0 0 0 0 0 0 0 0 0 0 0 0 0 0 0 0 30 30 30 29 29 29 27 27 27 27 27 27 27 27 27 27 27 27 27 27 27 27 27 27 27 27 27 27 27 27 
27 27 27 27 27 27 27 27 27 27 27 27 27 27 27 27 27 27 27 27 27 27 27 27 27 27 27 29 29 29 0 0 0 0 0 0 125 125 125 118 118 118 118 118 118 118 118 118 118 118 118 118 118 118 118 118 118 126 126 126 0 0 0 0 0 0 0 0 0 0 0 0 0 0 0 0 0 0 127 127 127 127 127 127 0 0 0 0 0 0 159 159 159 157 157 157 157 157 157 153 153 153 220 220 220 216 216 216 216 216 216 216 216 216 216 216 216 216 216 216 216 216 216 216 216 216 216 216 216 220 220 220 153 153 153 159 159 159 0 0 0 0 0 0 0 0 0 0 0 0 0 0 0 0 0 0 0 0 0 0 0 0 29 29 29 27 27 27 27 27 27 27 27 27 27 27 27 27 27 27 27 27 27 27 27 27 27 27 27 27 27 27 
27 27 27 27 27 27 27 27 27 27 27 27 27 27 27 27 27 27 27 27 27 27 27 27 27 27 27 29 29 29 0 0 0 0 0 0 125 125 125 118 118 118 118 118 118 118 118 118 118 118 118 118 118 118 118 118 118 117 117 117 126 126 126 125 125 125 125 125 125 125 125 125 125 125 125 127 127 127 0 0 0 0 0 0 0 0 0 0 0 0 0 0 0 0 0 0 0 0 0 0 0 0 0 0 0 0 0 0 0 0 0 0 0 0 0 0 0 0 0 0 0 0 0 0 0 0 0 0 0 0 0 0 0 0 0 0 0 0 0 0 0 0 0 0 127 127 127 125 125 125 125 125 125 127 127 127 0 0 0 0 0 0 29 29 29 27 27 27 27 27 27 27 27 27 27 27 27 27 27 27 27 27 27 27 27 27 27 27 27 27 27 27 
27 27 27 27 27 27 27 27 27 27 27 27 27 27 27 27 27 27 27 27 27 27 27 27 27 27 27 29 29 29 0 0 0 0 0 0 125 125 125 118 118 118 118 118 118 118 118 118 118 118 118 118 118 118 118 118 118 118 118 118 118 118 118 118 118 118 118 118 118 118 118 118 118 118 118 126 126 126 0 0 0 0 0 0 0 0 0 0 0 0 0 0 0 0 0 0 0 0 0 0 0 0 0 0 0 0 0 0 0 0 0 0 0 0 0 0 0 0 0 0 0 0 0 0 0 0 0 0 0 0 0 0 0 0 0 0 0 0 0 0 0 0 0 0 126 126 126 118 118 118 118 118 118 125 125 125 0 0 0 0 0 0 29 29 29 27 27 27 27 27 27 27 27 27 27 27 27 27 27 27 27 27 27 27 27 27 27 27 27 27 27 27 
27 27 27 27 27 27 27 27 27 27 27 27 27 27 27 27 27 27 27 27 27 27 27 27 27 27 27 29 29 29 0 0 0 0 0 0 125 125 125 118 118 118 118 118 118 118 118 118 118 118 118 118 118 118 118 118 118 118 118 118 118 118 118 118 118 118 118 118 118 118 118 118 118 118 118 117 117 117 126 126 126 125 125 125 125 125 125 125 125 125 125 125 125 125 125 125 125 125 125 125 125 125 125 125 125 125 125 125 161 161 161 159 159 159 159 159 159 159 159 159 159 159 159 161 161 161 125 125 125 125 125 125 125 125 125 125 125 125 125 125 125 126 126 126 117 117 117 118 118 118 118 118 118 125 125 125 0 0 0 0 0 0 29 29 29 27 27 27 27 27 27 27 27 27 27 27 27 27 27 27 27 27 27 27 27 27 27 27 27 27 27 27 
27 27 27 27 27 27 27 27 27 27 27 27 27 27 27 27 27 27 27 27 27 27 27 27 27 27 27 29 29 29 0 0 0 0 0 0 125 125 125 118 118 118 118 118 118 118 118 118 118 118 118 118 118 118 118 118 118 118 118 118 118 118 118 118 118 118 118 118 118 118 118 118 118 118 118 118 118 118 118 118 118 118 118 118 118 118 118 118 118 118 118 118 118 118 118 118 118 118 118 118 118 118 118 118 118 117 117 117 158 158 158 156 156 156 156 156 156 156 156 156 156 156 156 158 158 158 117 117 117 118 118 118 118 118 118 118 118 118 118 118 118 118 118 118 118 118 118 118 118 118 118 118 118 125 125 125 0 0 0 0 0 0 29 29 29 27 27 27 27 27 27 27 27 27 27 27 27 27 27 27 27 27 27 27 27 27 27 27 27 27 27 27 
