P3
64 64
255
27 27 27 27 27 27 27 27 27 27 27 27 27 27 27 27 27 27 27 27 27 29 29 29 0 0 0 0 0 0 0 0 0 0 0 0 0 119 251 0 112 236 0 112 236 0 112 236 0 112 236 0 112 236 0 112 236 0 112 236 0 112 236 0 112 236 0 112 236 0 112 236 0 112 236 0 119 251 0 0 0 0 0 0 0 0 0 0 0 0 0 119 251 0 112 236 0 112 236 0 103 235 255 255 253 255 253 254 0 231 214 0 232 216 0 232 216 0 232 216 0 232 216 0 232 216 0 232 216 0 246 230 0 0 0 0 0 0 0 119 251 0 112 236 0 112 236 0 112 236 0 112 236 0 119 251 0 0 0 0 0 0 29 29 29 27 27 27 27 27 27 27 27 27 27 27 27 27 27 27 27 27 27 27 27 27 27 27 27 27 27 27 
27 27 27 27 27 27 27 27 27 27 27 27 27 27 27 27 27 27 29 29 29 30 31 31 0 0 0 0 0 0 0 0 0 0 0 0 0 119 252 0 112 236 0 107 235 0 107 235 0 107 235 0 107 235 0 107 235 0 107 235 0 107 235 0 107 235 0 107 235 0 107 235 0 112 236 0 119 252 0 0 0 0 0 0 0 0 0 0 0 0 0 127 255 0 119 252 0 112 235 0 103 235 255 255 254 255 255 255 0 229 211 0 231 214 0 231 214 0 231 214 1 232 216 0 232 216 0 232 216 0 247 230 0 0 0 0 0 0 0 127 255 0 119 252 0 112 235 0 112 236 0 112 236 0 119 252 0 0 0 0 0 0 30 31 31 29 29 29 27 27 27 27 27 27 27 27 27 27 27 27 27 27 27 27 27 27 27 27 27 27 27 27 
27 27 27 27 27 27 27 27 27 27 27 27 27 27 27 29 29 29 0 0 0 0 0 0 0 127 255 0 119 251 0 119 251 0 119 252 0 112 235 0 107 235 68 198 254 64 193 253 64 193 253 64 193 253 64 193 253 64 193 253 64 193 253 64 193 253 64 193 253 68 198 254 0 107 235 0 112 235 0 119 252 0 119 251 0 119 251 0 127 255 0 0 0 0 0 0 0 119 252 1 113 236 0 103 235 0 94 234 255 255 255 255 253 254 255 253 254 255 255 255 0 231 214 0 232 216 0 232 216 0 231 215 0 247 230 0 255 245 0 0 0 0 0 0 0 119 252 0 112 236 0 112 236 0 112 235 0 119 252 0 127 255 0 0 0 0 0 0 29 29 29 27 27 27 27 27 27 27 27 27 27 27 27 27 27 27 27 27 27 27 27 27 
27 27 27 27 27 27 27 27 27 27 27 27 29 29 29 30 31 31 0 0 0 0 0 0 0 119 252 0 112 236 0 112 236 0 112 236 0 107 235 0 102 234 64 193 253 60 188 252 60 188 252 60 188 252 60 188 252 60 188 252 60 188 252 60 188 252 60 188 252 64 193 253 0 102 234 0 107 235 0 112 236 0 112 236 0 112 236 0 119 252 0 0 0 0 0 0 0 127 255 0 119 252 0 112 235 0 103 235 255 255 254 255 255 253 255 255 253 255 255 255 0 238 212 0 240 215 0 240 215 0 240 215 0 240 215 0 254 228 0 0 0 0 0 0 0 119 251 0 112 236 0 112 236 0 112 236 0 112 236 0 119 252 0 0 0 0 0 0 29 29 30 27 27 27 27 27 27 27 27 27 27 27 27 27 27 27 27 27 27 27 27 27 
27 27 27 27 27 27 27 27 27 29 29 29 0 0 0 0 0 0 0 127 255 0 119 252 0 112 235 0 112 236 0 112 236 0 107 235 68 198 254 64 193 253 60 188 252 60 188 252 60 188 252 60 188 252 60 188 252 60 188 252 60 188 252 60 188 252 60 188 252 60 188 252 64 193 253 68 198 254 0 107 235 0 112 236 0 112 236 0 112 235 0 119 252 0 127 255 0 0 0 0 0 0 0 119 252 1 113 236 0 103 235 0 103 235 0 103 235 0 103 235 1 105 237 0 104 237 0 104 237 0 104 237 0 104 237 0 111 252 0 0 0 0 0 0 0 119 251 0 112 236 0 112 236 0 112 236 0 112 236 0 112 235 0 119 252 0 125 255 29 21 13 27 27 27 27 27 27 27 27 27 27 27 27 27 27 27 27 27 27 27 27 27 
27 27 27 27 27 27 27 27 27 29 29 30 0 0 0 0 0 0 0 119 252 0 112 236 0 112 236 0 112 236 0 107 235 0 102 234 64 193 253 60 188 252 60 188 252 60 188 252 60 188 252 60 188 252 60 188 252 60 188 252 60 188 252 60 188 252 60 188 252 60 188 252 60 188 252 64 193 253 0 107 235 0 112 236 0 112 236 0 112 236 0 112 236 0 119 252 0 0 0 0 0 0 0 127 255 0 119 251 0 119 251 0 119 251 0 119 251 0 119 251 0 119 251 0 119 251 0 119 251 0 119 251 0 119 251 0 126 255 0 0 0 0 0 0 0 119 251 0 112 236 0 112 236 0 112 236 0 112 236 0 112 236 0 112 236 0 117 249 30 23 16 29 29 29 27 27 27 27 27 27 27 27 27 27 27 27 27 27 27 27 27 27 
27 27 27 27 27 27 27 27 27 29 21 13 0 125 255 0 119 252 0 112 235 0 112 236 0 112 236 0 107 235 68 198 254 64 193 253 60 188 252 60 188 252 60 188 252 60 188 252 60 188 252 60 188 252 60 188 252 60 188 252 60 188 252 60 188 252 60 188 252 60 188 252 60 188 252 64 193 253 0 107 235 0 112 236 0 112 236 0 112 236 0 112 236 0 112 235 0 119 252 0 127 255 0 0 0 0 0 0 0 0 0 0 0 0 0 0 0 0 0 0 0 0 0 0 0 0 0 0 0 0 0 0 0 0 0 0 0 0 0 0 1 0 0 0 0 119 251 0 112 236 0 112 236 0 112 236 0 112 236 0 112 236 0 112 236 0 119 251 0 0 0 0 0 0 29 29 29 27 27 27 27 27 27 27 27 27 27 27 27 27 27 27 
27 27 27 27 27 27 29 29 29 30 23 16 0 117 249 0 112 236 0 112 236 0 112 236 0 112 236 0 107 235 64 193 253 60 188 252 60 188 252 60 188 252 60 188 252 60 188 252 60 188 252 60 188 252 60 188 252 60 188 252 60 188 252 60 188 252 60 188 252 60 188 252 60 188 252 64 193 253 0 107 235 0 112 236 0 112 236 0 112 236 0 112 236 0 112 236 0 112 236 0 119 252 0 0 0 0 0 0 0 0 0 0 0 0 0 0 0 0 0 0 0 0 0 0 0 0 0 0 0 0 0 0 0 0 0 0 0 0 0 0 0 0 0 0 0 119 252 0 112 236 0 112 236 0 112 236 0 112 236 0 112 236 0 112 236 0 119 252 0 0 0 0 0 0 29 29 30 27 27 27 27 27 27 27 27 27 27 27 27 27 27 27 
27 27 27 29 29 29 0 0 0 0 0 0 0 119 251 0 112 236 0 112 236 0 112 236 0 112 236 0 107 235 64 193 253 60 188 252 60 188 252 60 188 252 60 188 252 60 188 252 60 188 252 60 188 252 60 188 252 60 188 252 60 188 252 60 188 252 60 188 252 60 188 252 60 188 252 64 193 253 0 107 235 0 112 236 0 112 236 0 112 236 0 112 236 0 112 236 0 112 236 0 112 235 0 119 252 0 119 251 0 119 251 0 119 251 0 119 251 0 119 251 0 119 251 0 119 251 0 119 251 0 119 251 0 119 251 0 119 251 0 119 251 0 119 252 0 112 235 0 112 236 0 112 236 0 112 236 0 112 236 0 112 236 0 112 236 0 112 235 0 119 252 0 125 255 29 21 13 27 27 27 27 27 27 27 27 27 27 27 27 27 27 27 
27 27 27 29 29 30 0 0 0 0 0 0 0 119 252 0 112 236 0 112 236 0 112 236 0 112 236 0 107 235 64 193 253 60 188 252 60 188 252 60 188 252 60 188 252 60 188 252 60 188 252 60 188 252 60 188 252 60 188 252 60 188 252 60 188 252 60 188 252 60 188 252 64 193 253 68 198 254 0 107 235 0 112 236 0 112 236 0 112 236 0 112 236 0 112 236 0 112 236 0 112 236 0 112 236 0 112 236 0 112 236 0 112 235 0 119 252 0 119 251 0 119 251 0 119 251 0 119 251 0 119 251 0 119 251 0 119 251 0 119 251 0 119 252 0 112 235 0 112 236 0 112 236 0 112 236 0 112 236 0 112 236 0 112 236 0 112 236 0 112 236 0 117 249 30 23 16 29 29 29 27 27 27 27 27 27 27 27 27 27 27 27 
27 27 27 29 21 13 0 125 255 0 119 252 0 112 235 0 112 236 0 112 236 0 112 236 0 112 236 0 107 235 64 193 253 60 188 252 60 188 252 60 188 252 60 188 252 60 188 252 60 188 252 60 188 252 60 188 252 60 188 252 60 188 252 60 188 252 60 188 252 64 193 253 0 102 234 0 107 235 0 112 236 0 112 236 0 112 236 0 112 236 0 112 236 0 112 236 0 112 236 0 112 236 0 112 236 0 112 236 0 112 236 0 119 252 0 0 0 0 0 0 0 0 0 0 0 0 0 0 0 0 0 0 0 0 0 0 0 0 0 0 0 0 0 0 0 119 252 0 112 236 0 112 236 0 112 236 0 112 236 0 112 236 0 112 236 0 112 236 0 112 236 0 119 251 0 0 0 0 0 0 29 29 29 27 27 27 27 27 27 27 27 27 
29 29 29 30 23 16 0 117 249 0 112 236 0 112 236 0 112 236 0 112 236 0 112 236 0 112 236 0 107 235 68 198 254 64 193 253 60 188 252 60 188 252 60 188 252 60 188 252 60 188 252 60 188 252 60 188 252 60 188 252 64 193 253 64 193 253 64 193 253 68 198 254 0 107 235 0 112 236 0 112 236 0 112 236 0 112 236 0 112 236 0 112 236 0 112 236 0 112 236 0 112 236 0 112 236 0 112 235 0 119 252 0 127 255 0 0 0 0 0 0 0 0 0 0 0 0 0 0 0 0 0 0 0 0 0 0 0 0 0 0 0 0 0 0 0 127 255 0 119 252 0 112 235 0 112 236 0 112 236 0 112 236 0 112 236 0 112 236 0 112 236 0 119 251 0 0 0 0 0 0 29 29 29 27 27 27 27 27 27 27 27 27 
0 0 0 0 0 0 0 119 251 0 112 236 0 112 236 0 112 236 0 112 236 0 112 236 0 112 236 0 112 236 0 107 235 0 102 234 64 193 253 60 188 252 60 188 252 60 188 252 60 188 252 60 188 252 60 188 252 64 193 253 0 102 234 0 107 235 0 107 235 0 107 235 0 112 236 0 112 236 0 112 236 0 112 236 0 112 236 0 112 236 0 112 236 0 112 236 0 112 236 0 112 236 0 112 236 0 119 252 0 0 0 0 0 0 0 127 255 0 111 252 0 254 228 0 246 230 0 246 230 0 246 230 0 246 230 0 246 230 0 246 230 0 255 245 0 0 0 0 0 0 0 119 252 0 112 236 0 112 236 0 112 236 0 112 236 0 112 236 0 112 236 0 119 251 0 0 0 0 0 0 29 29 29 27 27 27 27 27 27 27 27 27 
0 0 0 0 0 0 0 119 251 0 112 236 0 112 236 0 112 236 0 112 236 0 112 236 0 112 236 0 112 236 0 112 236 0 107 235 68 198 254 64 193 253 64 193 253 64 193 253 64 193 253 64 193 253 64 193 253 68 198 254 0 107 235 0 112 236 0 112 236 0 112 236 0 112 236 0 112 236 0 112 236 0 112 236 0 112 236 0 112 236 0 112 236 0 112 236 0 112 236 0 112 236 0 112 236 0 119 251 0 0 0 0 0 0 0 119 251 0 104 237 0 240 215 0 232 216 0 232 216 0 232 216 0 232 216 0 232 216 0 232 216 0 247 230 0 0 0 0 0 0 0 127 255 0 119 252 0 112 235 0 112 236 0 112 236 0 112 236 0 112 236 0 119 252 0 0 0 0 0 0 29 29 30 27 27 27 27 27 27 27 27 27 
0 0 0 0 0 0 0 119 251 0 112 236 0 112 236 0 112 236 0 112 236 0 112 236 0 112 236 0 112 236 0 112 236 0 112 236 0 107 235 0 107 235 0 107 235 0 107 235 0 107 235 0 107 235 0 107 235 0 107 235 0 112 236 0 112 236 0 112 236 0 112 236 0 112 236 0 112 236 0 112 236 0 112 236 0 112 236 0 112 236 0 112 236 0 112 236 0 112 236 0 112 236 0 112 236 0 119 251 0 0 0 0 0 0 0 119 251 0 104 237 0 240 215 0 232 216 0 232 216 0 232 216 0 232 216 0 232 216 0 232 216 0 231 215 0 247 230 0 255 245 0 0 0 0 0 0 0 119 252 0 112 236 0 112 236 0 112 236 0 112 236 0 112 235 0 119 252 0 125 255 29 21 13 27 27 27 27 27 27 27 27 27 
0 0 0 0 0 0 0 119 251 0 112 236 0 112 236 0 112 236 0 112 236 0 112 236 0 112 236 0 112 236 0 112 236 0 112 236 0 112 236 0 112 236 0 112 236 0 112 236 0 112 236 0 112 236 0 112 236 0 112 236 0 112 236 0 112 236 0 112 236 0 112 236 0 112 236 0 112 236 0 112 236 0 112 236 0 112 236 0 112 236 0 112 236 0 112 236 0 112 236 0 112 236 0 112 236 0 119 252 0 0 0 0 0 0 0 127 255 1 112 253 0 238 211 0 231 214 1 232 216 0 232 216 0 232 216 0 232 216 0 232 216 0 232 216 0 232 216 0 246 230 0 0 0 0 0 0 0 119 251 0 112 236 0 112 236 0 112 236 0 112 236 0 112 236 0 112 236 0 117 249 30 23 16 29 29 29 27 27 27 27 27 27 
0 0 0 0 0 0 0 119 251 0 112 236 0 112 236 0 112 236 0 112 236 0 112 236 0 112 236 0 112 236 0 112 236 0 112 236 0 112 236 0 112 236 0 112 236 0 112 236 0 112 236 0 112 236 0 112 236 0 112 236 0 112 236 0 112 236 0 112 236 0 112 236 0 112 236 0 112 236 0 112 236 0 112 236 0 112 236 0 112 236 0 112 236 0 112 236 0 112 236 0 112 236 0 112 236 0 112 235 0 119 252 0 127 255 0 0 0 0 0 0 255 255 255 255 255 255 0 231 214 0 232 216 0 232 216 0 232 216 0 232 216 0 232 216 0 232 216 0 246 230 0 0 0 0 0 0 0 119 251 0 112 236 0 112 236 0 112 236 0 112 236 0 112 236 0 112 236 0 119 251 0 0 0 0 0 0 29 29 29 27 27 27 
0 0 0 0 0 0 0 119 252 0 112 236 0 112 236 0 112 236 0 112 236 0 112 236 0 112 236 0 112 236 0 112 236 0 112 236 0 112 236 0 112 236 0 112 236 0 112 236 0 112 236 0 112 236 0 112 236 0 112 236 0 112 236 0 112 236 0 112 236 0 112 236 0 112 236 0 112 236 0 112 236 0 112 236 0 112 236 0 112 236 0 112 236 0 112 236 0 112 236 0 112 236 0 112 236 0 112 236 0 112 236 0 119 251 0 0 0 0 0 0 255 255 255 255 255 255 0 229 211 0 231 214 0 231 214 0 231 214 0 231 214 0 230 214 1 240 215 0 254 228 0 0 0 0 0 0 0 119 251 0 112 236 0 112 236 0 112 236 0 112 236 0 112 236 0 112 236 0 119 251 0 0 0 0 0 0 29 29 29 27 27 27 
0 119 251 0 119 252 0 112 235 0 112 236 0 112 236 0 112 236 0 112 236 0 112 236 0 112 236 0 112 236 0 112 236 0 112 236 0 112 236 0 112 236 0 112 236 0 112 236 0 112 236 0 112 236 0 112 236 0 112 236 0 112 236 0 112 236 0 112 236 0 112 236 0 112 236 0 112 236 0 112 236 0 112 236 0 112 236 0 112 236 0 112 236 0 112 236 0 112 236 0 112 236 0 112 236 0 112 236 0 112 236 0 119 251 0 0 0 1 0 0 0 110 250 0 94 234 255 255 255 255 253 254 255 253 254 255 253 254 255 253 254 255 255 255 0 95 236 0 111 252 0 0 0 0 0 0 0 119 251 0 112 236 0 112 236 0 112 236 0 112 236 0 112 236 0 112 236 0 119 251 0 0 0 0 0 0 29 29 29 27 27 27 
0 112 236 0 112 236 0 112 236 0 112 236 0 112 236 0 112 236 0 112 236 0 112 236 0 112 236 0 112 236 0 112 236 0 112 236 0 112 236 0 112 236 0 112 236 0 112 236 0 112 236 0 112 236 0 112 236 0 112 236 0 112 236 0 112 236 0 112 236 0 112 235 0 119 252 0 119 251 0 119 251 0 119 251 0 119 251 0 119 251 0 119 251 0 119 252 0 112 235 0 112 236 0 112 236 0 112 236 0 112 236 0 119 251 0 0 0 0 0 0 0 119 251 0 103 235 255 255 254 255 255 253 255 255 253 255 255 253 255 255 253 255 255 254 0 103 235 0 119 251 0 0 0 0 0 0 0 119 251 0 112 236 0 112 236 0 112 236 0 112 236 0 112 236 0 112 236 0 119 251 0 0 0 0 0 0 29 29 29 27 27 27 
0 112 236 0 112 236 0 112 236 0 112 236 0 112 236 0 112 236 0 112 236 0 112 236 0 112 236 0 112 236 0 112 236 0 112 236 0 112 236 0 112 236 0 112 236 0 112 236 0 112 236 0 112 236 0 112 236 0 112 236 0 112 236 0 112 236 0 112 236 0 119 252 0 0 0 0 0 0 0 0 0 0 0 0 0 0 0 0 0 0 0 0 0 0 0 0 0 119 252 0 112 236 0 112 236 0 112 236 0 112 236 0 119 251 0 0 0 0 0 0 0 119 251 1 113 236 0 103 235 0 103 235 0 103 235 0 103 235 0 103 235 0 103 235 1 113 236 0 119 251 0 0 0 0 0 0 0 119 251 0 112 236 0 112 236 0 112 236 0 112 236 0 112 236 0 112 236 0 119 251 0 0 0 0 0 0 29 29 29 27 27 27 
0 119 251 0 119 251 0 119 251 0 119 252 0 112 235 0 112 236 0 112 236 0 112 236 0 112 236 0 112 236 0 112 236 0 112 236 0 112 236 0 112 236 0 112 236 0 112 236 0 112 236 0 112 236 0 112 236 0 112 235 0 119 252 0 119 251 0 119 251 1 127 255 0 0 0 0 0 0 0 0 0 0 0 0 0 0 0 0 0 0 1 1 0 0 0 0 0 126 255 0 119 251 0 119 251 0 119 252 0 112 235 0 119 252 0 0 0 0 0 0 0 127 255 0 119 251 0 119 251 0 119 251 0 119 251 0 119 251 0 119 251 0 119 251 0 119 251 0 127 255 0 0 0 0 0 0 0 127 255 0 119 251 0 119 251 0 119 252 0 112 235 0 112 236 0 112 236 0 119 251 0 0 0 0 0 0 29 29 29 27 27 27 
0 0 0 0 0 0 0 0 0 0 0 0 0 119 252 0 112 236 0 112 236 0 112 236 0 112 236 0 112 236 0 112 236 0 112 236 0 112 236 0 112 236 0 112 236 0 112 236 0 112 236 0 112 236 0 112 236 0 119 252 0 0 0 0 0 0 0 0 0 0 0 0 255 172 64 255 162 60 255 162 60 255 162 60 255 162 60 255 172 63 0 0 0 0 0 1 0 0 0 0 0 0 0 0 0 0 0 0 0 119 252 0 112 235 0 119 252 0 127 255 0 0 0 0 0 0 0 0 0 0 0 0 0 0 0 0 0 0 0 0 0 0 0 0 0 0 0 0 0 0 0 127 255 0 127 255 0 0 0 0 0 0 0 0 0 0 0 0 0 119 252 0 112 236 0 112 236 0 119 251 0 0 0 0 0 0 29 29 29 27 27 27 
0 0 0 0 0 0 0 0 0 0 0 0 0 112 253 0 104 237 0 112 236 0 112 236 0 112 236 0 112 236 0 112 236 0 112 236 0 112 236 0 112 236 0 112 236 0 112 236 0 112 236 0 112 235 0 119 252 1 127 255 0 0 0 0 0 0 0 0 0 0 0 0 255 172 63 255 162 60 255 162 60 255 162 60 255 162 60 255 172 63 0 0 0 0 0 0 0 0 0 0 0 0 0 0 0 0 0 0 0 126 255 0 119 252 0 112 235 0 119 252 0 0 0 0 0 0 0 0 0 0 0 0 0 0 0 0 0 0 0 0 0 0 0 0 0 0 0 0 0 0 0 127 255 0 126 255 0 0 0 0 0 0 0 0 0 0 0 0 0 126 255 0 119 252 0 112 235 0 119 251 0 0 0 0 0 0 29 29 29 27 27 27 
0 119 251 0 111 252 0 254 228 0 247 230 0 239 214 0 247 213 0 104 237 0 112 236 0 112 236 0 112 236 0 112 236 0 112 236 0 112 236 0 112 236 0 112 236 0 112 236 0 112 236 0 119 252 0 0 0 0 0 0 255 172 64 255 162 60 255 162 60 255 172 63 0 0 0 0 0 0 0 0 0 0 0 0 0 0 0 0 0 0 1 1 0 0 0 0 0 0 0 0 0 0 0 0 0 0 0 1 0 0 0 0 0 0 0 119 252 0 112 235 0 119 252 0 119 251 0 119 251 0 119 251 0 119 251 0 119 251 0 119 251 0 119 251 0 119 251 0 127 255 0 0 0 0 0 0 0 0 1 0 0 0 0 0 0 0 0 1 0 0 0 0 0 0 0 119 252 0 119 251 0 0 0 0 0 0 29 29 29 27 27 27 
0 104 237 0 97 239 0 240 215 0 232 216 0 232 216 0 240 215 0 97 239 0 104 237 0 112 236 0 112 236 0 112 236 0 112 236 0 112 236 0 112 236 0 112 236 0 112 235 0 119 252 1 127 255 0 0 0 0 0 0 255 162 60 251 151 56 255 162 60 255 172 64 0 0 0 0 0 0 0 0 0 0 0 0 0 0 0 0 0 0 1 1 1 0 0 1 0 0 0 0 0 0 0 0 1 0 0 0 0 0 0 0 0 0 0 126 255 0 119 251 0 119 251 0 119 252 0 112 235 0 112 236 0 112 236 0 112 236 0 112 236 0 112 235 0 119 252 0 126 255 0 0 0 0 0 0 0 0 0 0 0 0 0 0 0 0 0 0 0 0 0 0 0 0 0 119 251 0 119 251 0 0 0 0 0 0 29 29 29 27 27 27 
0 240 215 0 240 215 0 232 216 0 232 216 0 232 216 0 232 216 0 240 215 0 247 213 0 104 237 0 112 236 0 112 236 0 112 236 0 112 236 0 112 236 0 112 236 0 119 252 0 0 0 0 0 0 255 172 64 255 162 60 251 151 56 255 162 60 0 0 0 0 0 0 255 244 190 255 230 178 255 230 178 255 230 178 255 230 178 255 244 190 0 0 0 0 0 0 0 126 255 0 126 255 0 0 0 0 0 0 0 0 0 0 0 1 0 0 0 0 0 0 0 0 0 0 0 0 0 119 252 0 112 236 0 112 236 0 112 236 0 112 236 0 119 252 0 0 0 0 0 0 0 0 1 0 0 0 0 0 0 0 0 0 0 0 0 0 0 0 0 0 0 0 0 0 0 119 251 0 119 251 0 0 0 0 0 0 29 29 29 27 27 27 
0 246 230 0 247 230 0 231 215 0 232 216 0 232 216 1 232 216 0 231 214 0 238 212 1 105 237 0 112 236 0 112 236 0 112 236 0 112 236 0 112 235 0 119 252 0 126 255 0 0 0 0 0 0 255 162 60 252 152 56 252 152 56 255 162 60 0 0 0 0 0 0 255 230 179 252 216 168 252 216 168 252 216 168 252 216 168 255 230 178 0 0 0 0 0 0 0 119 251 0 119 251 0 0 0 0 0 0 0 0 0 1 1 0 0 0 0 0 0 0 1 1 0 0 0 0 0 126 255 0 119 251 0 119 251 0 119 251 0 119 251 0 127 255 0 0 0 0 0 0 0 0 1 1 1 1 0 0 0 0 0 0 1 1 1 0 0 0 0 0 0 0 0 0 0 126 255 0 127 255 0 0 0 0 0 0 30 31 31 29 29 29 
0 0 0 0 0 0 0 247 230 0 232 216 0 232 216 0 231 214 255 255 255 255 255 255 0 103 235 0 112 236 0 112 236 0 112 236 0 112 236 0 119 252 0 0 0 0 0 0 0 0 1 0 0 0 255 162 60 252 152 56 252 152 56 251 147 48 255 234 186 255 230 179 251 215 167 252 216 168 252 216 168 252 216 168 252 216 168 255 230 178 0 0 0 0 0 0 0 119 251 0 119 251 0 0 0 0 0 0 0 0 0 0 0 0 255 172 63 255 172 63 0 0 0 0 0 1 0 0 0 0 0 0 0 0 0 0 0 0 0 0 0 0 0 0 0 127 255 0 126 255 0 0 0 0 0 0 255 244 190 255 244 190 0 0 0 0 0 0 0 0 0 0 0 1 0 0 0 0 0 0 0 127 255 0 127 255 0 0 0 0 0 0 
0 0 0 0 0 0 1 255 244 1 247 230 0 230 213 0 229 211 255 253 254 255 255 253 0 103 235 0 112 236 0 112 236 0 112 236 0 112 236 0 119 251 0 0 0 1 1 0 0 0 0 0 0 0 255 162 60 251 151 56 255 162 60 255 158 53 251 219 175 252 216 168 252 216 168 252 216 168 252 216 168 252 216 168 252 216 168 255 230 178 0 0 0 0 0 0 0 119 251 0 119 251 0 0 0 1 1 1 0 0 0 0 0 0 255 162 60 255 162 60 0 0 0 0 0 0 0 0 0 0 0 0 0 0 0 0 0 0 1 1 0 0 0 0 0 119 251 0 119 251 0 0 0 0 0 0 255 230 178 255 230 179 0 0 0 0 0 0 1 1 1 0 0 0 0 0 0 0 0 0 0 111 252 0 111 252 0 0 0 0 0 0 
230 42 0 244 46 1 0 0 0 0 0 0 255 255 255 255 253 254 251 252 252 255 255 253 0 103 235 0 112 236 0 112 236 0 112 236 0 112 236 0 119 251 0 0 0 0 0 0 255 172 63 255 162 60 251 151 56 255 162 60 0 0 0 0 0 0 255 230 179 252 216 168 252 216 168 252 216 168 252 216 168 252 216 168 252 216 168 255 230 178 0 0 0 0 0 0 0 119 251 0 119 251 0 0 0 0 0 0 255 244 190 255 234 186 251 147 48 251 151 56 255 162 60 255 162 60 255 162 60 255 162 60 255 162 60 255 172 63 0 0 0 0 0 0 0 119 251 0 119 251 0 0 0 0 0 0 255 230 178 251 215 167 255 230 179 255 244 190 0 0 0 0 0 0 0 0 0 0 0 0 0 254 228 0 254 228 0 0 0 0 0 0 
216 40 0 230 42 0 0 0 0 0 0 0 255 255 255 252 252 252 252 252 252 255 255 253 0 103 235 0 112 236 0 112 236 0 112 235 0 119 252 1 127 255 0 0 0 0 0 0 255 162 60 252 152 56 252 152 56 255 162 60 0 0 0 0 0 0 255 230 178 252 216 168 252 214 162 252 214 163 252 214 163 252 214 163 252 214 163 255 227 173 0 0 0 0 0 0 0 119 251 0 119 251 0 0 0 0 0 0 255 230 178 252 220 175 252 148 49 252 152 56 252 152 56 252 152 56 252 152 56 252 152 56 252 152 56 255 162 60 0 0 0 0 0 0 0 119 251 0 119 251 0 0 0 0 0 0 255 230 178 252 216 168 252 216 168 255 230 178 0 0 0 0 0 1 0 0 0 0 0 0 0 247 230 0 246 230 0 0 0 0 0 0 
216 40 0 230 42 0 0 0 0 0 0 0 255 255 255 252 252 252 252 252 252 255 255 253 0 103 235 0 112 236 0 112 236 0 119 252 0 0 0 0 0 0 255 172 64 255 162 60 251 151 56 252 152 56 252 152 56 255 162 60 0 0 0 0 0 0 255 230 178 252 214 162 252 255 255 252 254 255 252 254 255 252 254 255 252 254 255 255 255 255 0 0 0 0 0 0 0 119 251 0 119 251 0 0 0 0 0 0 255 230 178 252 220 175 252 148 49 252 152 56 252 152 56 252 152 56 252 152 56 252 152 56 252 152 56 255 162 60 0 0 0 0 0 0 0 119 251 0 119 251 0 0 0 0 0 0 255 230 178 252 216 168 252 216 168 255 230 178 0 0 0 0 0 0 0 126 255 0 112 253 0 239 214 0 246 230 0 0 0 0 0 0 
216 40 0 230 42 0 0 0 0 0 0 0 255 255 255 252 252 252 252 252 252 255 255 253 0 103 235 0 112 236 0 112 236 0 119 251 0 0 0 0 0 0 255 162 60 252 152 56 252 152 56 252 152 56 252 152 56 255 162 60 0 0 0 0 0 0 255 227 173 252 211 157 252 254 255 252 252 252 252 252 252 252 252 252 252 252 252 255 255 255 0 0 0 0 0 0 0 119 251 0 119 251 0 0 0 0 0 0 255 227 173 252 218 169 252 148 49 252 152 56 252 148 49 252 148 49 252 148 49 252 148 49 252 152 56 255 162 60 0 0 0 0 0 0 0 119 251 0 119 251 0 0 0 0 0 0 255 227 173 252 214 163 252 214 163 255 227 173 0 0 0 0 0 0 0 111 252 0 97 239 0 240 215 0 246 230 0 0 0 0 0 0 
216 40 0 230 42 0 0 0 0 0 0 0 255 255 255 252 252 252 252 252 252 255 255 253 0 103 235 0 112 236 0 112 236 0 119 251 0 0 0 0 0 0 255 162 60 252 152 56 252 152 56 252 152 56 252 152 56 255 162 60 0 0 0 0 0 0 255 255 255 252 254 255 252 252 252 252 252 252 252 252 252 252 252 252 252 252 252 255 255 255 0 0 0 0 0 0 0 119 251 0 119 251 0 0 0 0 0 0 255 255 255 252 255 255 252 146 43 252 148 49 252 224 182 252 220 175 252 220 175 252 224 182 252 148 49 255 162 60 0 0 0 0 0 0 0 119 251 0 119 251 0 0 0 0 0 0 255 255 255 252 254 255 252 254 255 255 255 255 0 0 0 0 0 0 0 254 228 0 240 215 0 232 216 0 246 230 0 0 0 0 0 0 
216 40 0 230 42 0 0 0 0 0 0 0 255 255 255 251 252 252 255 253 254 255 255 255 0 103 235 0 112 236 0 112 236 0 119 251 0 0 0 0 0 0 255 162 60 252 152 56 252 152 56 252 152 56 252 152 56 255 162 60 0 0 0 0 0 0 255 255 255 252 252 252 252 252 252 252 252 252 252 252 252 252 252 252 252 252 252 255 255 255 0 0 0 1 0 0 0 110 250 0 110 250 1 0 0 0 0 0 255 255 255 252 255 255 252 142 36 252 144 42 252 220 175 252 216 168 252 216 168 252 220 175 252 144 42 255 157 52 0 0 0 1 0 0 0 110 250 0 110 250 1 0 0 0 0 0 255 255 255 252 252 252 252 252 252 255 255 255 0 0 0 0 0 0 0 246 230 0 232 216 0 240 215 0 254 228 0 0 0 0 0 0 
216 40 0 230 42 0 0 0 0 0 0 0 255 255 255 255 253 254 0 229 211 0 238 212 1 105 237 0 112 236 0 112 236 0 119 251 0 0 0 0 0 0 255 162 60 252 152 56 252 152 56 252 152 56 252 152 56 255 162 60 0 0 0 0 0 0 255 255 255 252 252 252 252 252 252 252 252 252 252 252 252 252 252 252 252 252 252 255 255 255 0 0 0 0 0 0 255 255 255 255 255 255 0 0 0 0 0 0 255 255 255 252 254 255 252 218 170 252 220 175 252 216 168 252 216 168 252 216 168 252 216 168 252 220 175 255 234 186 0 0 0 0 0 0 255 255 255 255 255 255 0 0 0 0 0 0 255 255 255 252 252 252 252 252 252 255 255 255 0 0 0 0 0 0 0 246 230 0 240 215 0 97 239 0 111 252 0 0 0 0 0 0 
216 40 0 230 42 0 0 0 0 0 0 0 255 255 255 255 255 255 0 231 214 0 240 215 0 104 237 0 112 236 0 112 236 0 119 251 0 0 0 0 0 0 255 162 60 252 152 56 252 152 56 252 152 56 252 152 56 255 162 60 0 0 0 0 0 0 255 255 255 252 252 252 252 252 252 252 252 252 252 252 252 252 252 252 252 252 252 255 255 255 0 0 0 0 0 0 255 255 255 255 255 255 0 0 0 0 0 0 255 255 255 252 254 255 252 214 163 252 216 168 252 216 168 252 216 168 252 216 168 252 216 168 252 216 168 255 230 178 0 0 0 0 0 0 255 255 255 255 255 255 0 0 0 0 0 0 255 255 255 252 252 252 252 252 252 255 255 255 0 0 0 0 0 0 0 254 228 0 247 213 0 104 237 0 119 251 0 0 0 0 0 0 
216 40 0 230 42 0 0 0 0 1 0 0 0 245 227 0 231 214 1 232 216 0 240 215 0 104 237 0 112 236 0 112 236 0 119 251 0 0 0 0 0 0 255 162 60 252 152 56 252 152 56 252 152 56 252 152 56 255 162 60 0 0 0 0 0 0 255 255 255 252 252 252 252 252 252 252 252 252 252 252 252 252 252 252 252 252 252 255 255 255 0 0 0 0 0 0 51 196 255 51 196 255 0 0 0 0 0 0 255 255 255 252 254 255 252 214 163 252 216 168 252 216 168 252 216 168 252 216 168 252 216 168 252 216 168 255 230 178 0 0 0 0 0 0 51 196 255 51 196 255 0 0 0 0 0 0 255 255 255 252 252 252 252 252 252 255 255 255 0 0 0 0 0 0 0 111 252 0 104 237 0 112 236 0 119 251 0 0 0 0 0 0 
216 40 0 230 42 0 0 0 0 0 0 0 0 246 230 0 232 216 0 232 216 0 240 215 0 104 237 0 112 236 0 112 236 0 119 251 0 0 0 0 0 0 255 162 60 252 152 56 252 152 56 252 152 56 252 152 56 255 162 60 0 0 0 0 0 0 255 255 255 255 255 255 251 251 251 252 252 252 252 252 252 252 252 252 252 252 252 255 255 255 0 0 0 0 0 0 69 213 255 69 213 255 0 0 0 0 0 0 255 255 255 252 255 255 252 214 162 252 216 168 252 216 168 252 216 168 252 216 168 252 216 168 252 216 168 255 230 179 0 0 0 0 0 0 69 213 255 69 213 255 0 0 0 0 0 0 255 255 255 252 252 251 252 255 255 255 255 255 0 0 0 0 0 0 0 119 251 0 112 235 0 119 252 0 127 255 0 0 0 0 0 0 
216 40 0 230 42 0 0 0 0 0 0 0 0 246 230 0 232 216 0 232 216 0 240 215 0 104 237 0 112 236 0 112 236 0 119 251 0 0 0 0 0 0 255 162 60 252 152 56 252 152 56 252 152 56 252 152 56 251 151 56 255 162 60 255 173 64 0 0 0 0 0 0 255 255 255 252 252 252 252 252 252 252 252 252 252 252 252 251 251 251 255 255 255 255 255 255 0 0 0 0 0 0 255 255 255 255 255 255 251 210 156 252 214 162 252 216 168 252 216 168 252 216 168 252 216 168 252 216 168 252 216 168 252 216 168 251 215 167 255 230 179 255 245 191 0 0 0 0 0 0 255 255 255 255 255 255 251 251 251 252 255 255 252 139 31 255 155 46 0 0 0 0 0 0 0 119 251 0 119 252 0 0 0 0 0 0 30 31 31 29 29 29 
230 42 0 244 46 1 0 0 0 0 0 0 0 247 230 0 231 215 0 247 230 0 255 229 0 104 236 0 112 236 0 112 236 0 119 251 0 0 0 0 0 0 255 162 60 252 152 56 252 152 56 252 152 56 252 152 56 252 152 56 252 152 56 255 162 60 0 0 0 0 0 0 255 255 255 252 255 255 252 255 255 252 255 255 252 254 255 252 254 255 252 254 255 255 255 255 0 0 0 0 0 0 255 255 255 252 255 255 252 214 162 252 216 168 252 216 168 252 216 168 252 216 168 252 216 168 252 216 168 252 216 168 252 216 168 252 216 168 252 216 168 255 230 179 0 0 0 0 0 0 255 255 255 252 254 255 252 255 255 252 255 255 252 145 43 255 162 60 0 0 0 0 0 0 0 119 251 0 119 251 0 0 0 0 0 0 29 29 29 27 27 27 
0 0 0 0 0 0 1 255 244 0 247 230 0 231 215 0 247 230 0 0 0 0 0 0 0 120 252 0 112 236 0 112 236 0 119 251 0 0 0 0 0 0 255 162 60 252 152 56 252 152 56 252 152 56 252 152 56 252 152 56 252 152 56 251 151 56 255 162 60 255 162 60 251 145 43 252 146 44 252 146 44 252 142 36 252 218 170 252 214 163 252 214 163 251 213 162 255 230 179 255 230 179 251 213 162 252 214 162 252 216 168 252 216 168 252 216 168 252 216 168 252 216 168 252 216 168 252 216 168 252 216 168 252 216 168 252 216 168 252 216 168 251 215 167 255 230 179 255 230 179 251 213 162 252 218 170 252 142 36 252 145 43 252 152 57 255 162 60 0 0 0 0 0 0 0 119 251 0 119 251 0 0 0 0 0 0 29 29 29 27 27 27 
0 0 0 0 0 0 0 247 230 0 232 216 0 240 215 0 254 228 0 0 0 0 0 0 0 119 251 0 112 236 0 112 236 0 119 252 0 0 0 0 0 0 255 162 60 252 152 56 252 152 56 252 152 56 252 152 56 252 152 56 252 152 56 252 152 56 252 152 56 252 152 56 252 148 49 252 148 49 252 148 49 252 144 42 252 220 175 252 216 168 252 216 168 252 216 168 252 216 168 252 216 168 252 216 168 252 216 168 252 216 168 252 216 168 252 216 168 252 216 168 252 216 168 252 216 168 252 216 168 252 216 168 252 216 168 252 216 168 252 216 168 252 216 168 252 216 168 252 216 168 252 216 168 252 220 175 252 144 42 252 148 49 252 152 56 255 162 60 0 0 0 0 0 0 0 126 255 0 127 255 0 0 0 0 0 0 29 29 29 27 27 27 
0 119 251 0 112 253 0 239 214 0 240 215 0 97 239 0 111 252 0 0 0 0 0 0 0 119 251 0 112 236 0 112 236 0 112 235 0 119 252 0 117 255 255 154 44 252 152 56 252 152 56 252 152 56 252 152 56 252 152 56 252 152 56 252 152 56 252 152 56 252 148 49 252 224 182 252 220 175 252 220 175 252 220 175 252 216 168 252 216 168 252 216 168 252 216 168 252 216 168 252 216 168 252 216 168 252 216 168 252 216 168 252 216 168 252 216 168 252 216 168 252 216 168 252 216 168 252 216 168 252 216 168 252 216 168 252 216 168 252 216 168 252 216 168 252 216 168 252 216 168 252 216 168 252 216 168 252 220 175 252 224 182 252 148 49 255 162 60 0 0 0 0 0 1 0 0 0 0 0 0 30 31 31 29 29 29 27 27 27 27 27 27 
0 112 236 0 104 237 0 247 213 0 247 212 0 111 253 0 127 255 0 0 0 0 0 0 0 119 252 0 112 236 0 112 236 0 112 236 0 112 236 0 109 247 255 165 48 255 162 60 251 151 56 252 152 56 252 152 56 252 152 56 252 152 56 252 152 56 252 148 49 252 144 42 252 220 175 252 216 168 252 216 168 252 216 168 252 216 168 252 216 168 252 216 168 252 216 168 252 216 168 252 216 168 252 216 168 252 216 168 252 216 168 252 216 168 252 216 168 252 216 168 252 216 168 252 216 168 252 220 175 251 219 175 255 230 179 255 230 179 251 215 167 252 216 168 252 216 168 252 216 168 252 216 168 252 216 168 252 216 168 252 220 175 252 148 49 255 162 60 0 0 0 0 0 0 0 0 0 0 0 0 29 29 29 27 27 27 27 27 27 27 27 27 
0 112 236 0 112 236 0 104 237 0 111 253 0 0 0 0 0 0 0 127 255 0 119 252 0 112 235 0 112 236 0 112 236 0 112 236 0 112 236 1 120 251 0 0 0 0 0 0 255 162 60 252 152 56 252 152 56 252 152 56 252 152 56 252 148 49 252 224 182 252 220 175 252 216 168 252 216 168 252 216 168 252 216 168 252 216 168 252 216 168 252 216 168 252 216 168 252 216 168 252 216 168 252 216 168 252 216 168 252 216 168 252 216 168 252 216 168 252 216 168 252 216 168 252 220 175 252 144 42 255 158 53 0 0 0 0 0 0 255 230 179 252 216 168 252 216 168 252 216 168 252 216 168 252 216 168 252 216 168 252 220 175 252 148 49 255 162 60 0 0 0 0 0 0 0 0 0 0 0 0 29 29 29 27 27 27 27 27 27 27 27 27 
0 119 251 0 119 251 0 119 251 0 127 255 0 0 0 0 0 0 0 119 252 0 112 236 0 112 236 0 112 236 0 112 236 0 112 236 0 112 236 0 119 252 0 0 0 0 0 0 255 162 60 252 152 56 252 152 56 252 152 56 252 152 56 252 148 49 252 220 175 252 216 168 252 216 168 252 216 168 252 216 168 252 216 168 252 216 168 252 216 168 252 216 168 252 216 168 252 216 168 252 216 168 252 216 168 252 216 168 252 216 168 252 216 168 252 216 168 252 216 168 252 216 168 252 220 175 252 144 42 255 158 53 0 0 0 0 0 0 255 230 179 252 216 168 252 216 168 252 216 168 252 216 168 252 216 168 252 216 168 252 220 175 252 148 49 255 162 60 0 0 0 0 0 0 0 0 1 0 0 0 29 29 29 27 27 27 27 27 27 27 27 27 
0 0 0 0 0 0 0 0 0 0 0 0 0 127 255 0 119 252 0 112 235 0 112 236 0 112 236 0 112 236 0 112 236 0 112 236 0 112 236 0 112 235 0 119 252 0 117 255 255 154 44 252 152 56 252 152 56 252 152 56 252 152 56 252 148 49 252 220 175 252 216 168 252 216 168 252 216 168 252 216 168 252 216 168 252 216 168 252 216 168 252 216 168 252 216 168 252 216 168 252 216 168 252 216 168 252 216 168 252 216 168 252 216 168 252 216 168 252 216 168 252 216 168 252 216 168 252 220 175 251 219 175 255 230 179 255 230 179 251 215 167 252 216 168 252 216 168 252 216 168 252 216 168 252 216 168 252 216 168 252 220 175 252 148 49 255 154 44 0 117 255 0 126 255 0 0 0 0 0 0 29 29 29 27 27 27 27 27 27 27 27 27 
0 0 0 0 0 0 0 0 0 0 0 0 0 127 255 0 119 252 0 112 235 0 112 236 0 112 236 0 112 236 0 112 236 0 112 236 0 112 236 0 112 236 0 112 236 0 109 247 255 165 48 255 162 60 251 151 56 252 152 56 252 152 56 252 148 49 252 220 175 252 216 168 252 216 168 252 216 168 252 216 168 252 216 168 252 220 175 251 219 175 255 230 179 255 230 178 255 230 178 255 230 178 255 230 178 255 230 178 255 230 178 255 230 178 255 230 178 255 230 178 255 230 178 255 230 178 255 230 178 255 230 178 255 230 178 255 230 179 251 215 167 252 216 168 252 216 168 252 216 168 252 216 168 252 216 168 252 216 168 251 219 175 255 158 53 255 165 48 0 109 247 0 119 251 0 0 0 0 0 0 29 29 29 27 27 27 27 27 27 27 27 27 
29 29 29 29 29 29 29 29 29 30 31 31 0 0 0 0 0 0 0 119 252 0 112 236 0 112 236 0 112 236 0 112 236 0 112 236 0 112 236 0 112 236 0 112 236 1 120 251 0 0 0 0 0 0 255 162 60 252 152 56 252 152 56 252 148 49 252 220 175 252 216 168 252 216 168 252 216 168 252 216 168 252 220 175 252 144 42 255 158 53 0 0 0 0 0 0 0 0 0 0 0 0 0 0 0 0 0 0 0 0 0 0 0 0 0 0 0 0 0 0 0 0 0 0 0 0 0 0 0 0 0 0 0 0 0 0 0 0 255 230 179 252 216 168 252 216 168 252 216 168 252 216 168 252 216 168 252 216 168 255 230 179 0 0 0 0 0 0 1 120 251 0 119 251 0 0 0 0 0 0 29 29 29 27 27 27 27 27 27 27 27 27 
27 27 27 27 27 27 27 27 27 29 29 29 0 0 0 0 0 0 0 125 255 0 117 249 0 119 251 0 119 252 0 112 235 0 112 236 0 112 236 0 112 236 0 112 236 0 119 252 0 0 0 0 0 0 255 172 64 255 162 60 251 151 56 252 148 49 252 224 182 252 220 175 252 216 168 252 216 168 252 216 168 252 220 175 252 144 42 255 157 52 0 0 0 1 1 1 0 0 0 0 0 0 0 0 0 0 0 0 0 0 0 0 0 0 0 0 0 0 0 0 0 0 0 0 0 0 0 0 0 0 0 0 1 1 1 0 0 0 255 230 178 252 216 168 252 216 168 252 216 168 252 216 168 252 216 168 252 220 175 255 234 186 0 0 0 0 0 0 0 119 251 0 119 251 0 0 0 0 0 0 29 29 29 27 27 27 27 27 27 27 27 27 
27 27 27 27 27 27 27 27 27 27 27 27 29 29 29 29 29 30 29 21 13 30 23 16 0 0 0 0 0 0 0 119 252 0 112 236 0 112 236 0 112 236 0 112 236 0 112 235 0 119 252 1 127 255 0 0 0 0 0 0 255 162 60 252 152 56 252 148 49 252 144 42 252 220 175 252 216 168 252 216 168 252 216 168 252 220 175 255 234 186 0 0 0 0 0 0 255 244 190 255 230 178 255 230 178 255 230 178 255 230 178 255 227 173 255 255 255 255 255 255 255 227 173 255 230 178 255 230 178 255 244 190 0 0 0 0 0 0 255 230 178 252 216 168 252 216 168 252 216 168 252 216 168 252 220 175 252 144 42 255 157 52 0 0 0 0 0 0 0 119 251 0 119 251 0 0 0 0 0 0 29 29 29 27 27 27 27 27 27 27 27 27 
27 27 27 27 27 27 27 27 27 27 27 27 27 27 27 27 27 27 27 27 27 29 29 29 0 0 0 0 0 0 0 127 255 0 119 251 0 119 251 0 119 252 0 112 235 0 112 236 0 112 236 0 119 252 0 0 0 0 0 0 255 172 64 255 162 60 251 151 56 252 148 49 252 224 182 252 220 175 252 216 168 252 216 168 252 216 168 255 230 179 0 0 0 0 0 0 255 245 190 255 230 179 251 213 162 252 214 163 252 214 163 252 211 157 252 254 255 252 254 255 252 211 157 251 213 162 255 230 179 255 245 190 0 0 0 0 0 0 255 230 179 252 216 168 252 216 168 252 216 168 252 220 175 251 224 182 255 158 52 255 172 64 0 0 0 0 0 0 0 127 255 0 127 255 0 0 0 0 0 0 29 29 29 27 27 27 27 27 27 27 27 27 
27 27 27 27 27 27 27 27 27 27 27 27 27 27 27 27 27 27 27 27 27 27 27 27 29 29 29 30 31 31 0 0 0 0 0 0 0 0 0 0 0 0 0 119 252 0 112 236 0 112 236 0 112 235 0 119 252 1 127 255 0 0 0 0 0 0 255 162 60 252 152 56 252 148 49 252 144 42 252 220 175 252 216 168 252 216 168 251 215 167 255 230 179 255 245 190 0 0 0 0 0 0 255 255 255 252 254 255 252 254 255 252 254 255 252 252 252 252 252 252 252 254 255 255 255 255 0 0 0 0 0 0 255 245 190 255 230 179 251 215 167 252 216 168 252 216 168 252 220 175 252 144 42 255 158 52 0 0 0 0 0 0 1 127 255 0 127 255 0 0 0 0 0 0 30 31 31 29 29 29 27 27 27 27 27 27 27 27 27 27 27 27 
27 27 27 27 27 27 27 27 27 27 27 27 27 27 27 27 27 27 27 27 27 27 27 27 27 27 27 29 29 29 0 0 0 0 0 0 0 0 0 0 0 0 0 126 255 0 119 251 0 119 251 0 119 251 0 119 251 0 126 255 0 0 0 0 0 0 255 164 48 255 154 44 255 162 60 255 158 52 251 224 182 252 220 175 252 216 168 252 216 168 252 216 168 255 230 179 0 0 0 0 0 0 255 255 255 252 254 255 252 254 255 252 254 255 252 254 255 252 254 255 252 254 255 255 255 255 0 0 0 0 0 0 255 230 179 252 216 168 252 216 168 252 216 168 252 220 175 251 224 182 255 158 52 255 172 63 0 0 0 0 0 0 0 126 255 0 127 255 0 0 0 0 0 0 29 29 29 27 27 27 27 27 27 27 27 27 27 27 27 27 27 27 
27 27 27 27 27 27 27 27 27 27 27 27 27 27 27 27 27 27 27 27 27 27 27 27 27 27 27 27 27 27 29 29 29 30 30 30 0 0 0 0 0 1 0 0 0 0 0 0 0 0 0 0 0 0 0 0 0 0 0 0 0 0 1 1 0 0 0 116 255 0 117 255 0 0 0 0 0 0 255 158 52 252 144 42 252 220 175 252 216 168 252 216 168 251 215 167 255 230 179 255 230 179 251 213 162 252 214 163 252 214 163 252 214 163 252 214 163 252 214 163 252 214 163 251 213 162 255 230 179 255 230 179 251 215 167 252 216 168 252 216 168 252 220 175 252 144 42 255 158 52 0 0 0 0 0 0 1 1 0 0 0 1 0 0 0 0 0 0 30 31 31 29 29 29 27 27 27 27 27 27 27 27 27 27 27 27 27 27 27 27 27 27 
27 27 27 27 27 27 27 27 27 27 27 27 27 27 27 27 27 27 27 27 27 27 27 27 27 27 27 27 27 27 29 29 29 30 31 31 0 0 0 0 0 0 0 0 0 0 0 0 0 0 0 0 0 0 0 0 0 0 0 0 0 0 1 0 0 0 0 126 255 0 126 255 0 0 0 0 0 0 255 164 48 255 150 36 255 234 187 255 230 179 251 219 175 252 220 175 252 220 175 252 220 175 252 216 168 252 216 168 252 216 168 252 216 168 252 216 168 252 216 168 252 216 168 252 216 168 252 216 168 252 216 168 252 220 175 251 219 175 255 230 179 255 234 186 255 157 52 255 172 63 0 0 0 0 0 0 0 0 0 0 0 0 0 0 0 0 0 0 29 29 29 27 27 27 27 27 27 27 27 27 27 27 27 27 27 27 27 27 27 27 27 27 
27 27 27 27 27 27 27 27 27 27 27 27 27 27 27 27 27 27 27 27 27 27 27 27 27 27 27 29 29 29 0 0 0 0 0 0 0 127 255 0 119 251 0 119 251 0 119 251 0 119 251 0 119 251 0 119 251 0 126 255 0 0 0 0 0 1 0 0 0 0 0 0 0 0 1 1 0 0 0 116 255 0 117 255 0 0 0 0 0 0 255 158 53 252 148 49 252 148 49 252 144 42 252 220 175 252 216 168 252 216 168 252 216 168 252 216 168 252 216 168 252 216 168 252 216 168 252 216 168 252 220 175 252 144 42 255 158 53 0 0 0 0 0 0 0 0 0 0 0 0 1 1 0 0 0 0 0 0 0 0 0 0 30 30 30 29 29 29 27 27 27 27 27 27 27 27 27 27 27 27 27 27 27 27 27 27 27 27 27 27 27 27 
27 27 27 27 27 27 27 27 27 27 27 27 27 27 27 27 27 27 27 27 27 27 27 27 27 27 27 29 29 29 0 0 0 0 0 0 0 119 251 0 112 236 0 112 236 0 112 236 0 112 236 0 112 236 0 112 236 0 119 252 0 0 0 0 0 0 0 0 0 0 0 0 0 0 0 0 0 0 0 127 255 0 126 255 0 0 0 0 0 0 255 172 63 255 162 60 255 162 60 255 157 52 255 234 186 255 230 178 255 230 178 255 230 178 255 230 178 255 230 178 255 230 178 255 230 178 255 230 178 255 234 186 255 157 52 255 172 63 0 0 0 0 0 1 0 0 0 0 0 0 0 0 0 0 0 0 0 0 1 0 0 0 29 29 29 27 27 27 27 27 27 27 27 27 27 27 27 27 27 27 27 27 27 27 27 27 27 27 27 27 27 27 
27 27 27 27 27 27 27 27 27 27 27 27 27 27 27 27 27 27 27 27 27 27 27 27 27 27 27 29 29 29 0 0 0 0 0 0 0 119 251 0 112 236 0 112 236 0 112 236 0 112 236 0 112 236 0 112 236 0 112 235 0 119 252 0 119 251 0 119 251 0 119 251 0 119 251 0 127 255 0 0 0 0 0 0 0 0 1 1 1 0 0 0 0 0 0 0 0 0 0 0 0 0 0 0 0 0 0 0 0 0 0 0 0 0 0 0 0 0 0 0 0 0 0 0 0 0 0 0 0 0 0 0 0 0 0 0 0 0 1 1 0 0 0 0 0 126 255 0 119 251 0 119 251 0 126 255 0 0 0 0 0 0 29 29 29 27 27 27 27 27 27 27 27 27 27 27 27 27 27 27 27 27 27 27 27 27 27 27 27 27 27 27 
27 27 27 27 27 27 27 27 27 27 27 27 27 27 27 27 27 27 27 27 27 27 27 27 27 27 27 29 29 29 0 0 0 0 0 0 0 119 251 0 112 236 0 112 236 0 112 236 0 112 236 0 112 236 0 112 236 0 112 236 0 112 236 0 112 236 0 112 236 0 112 236 0 112 236 0 119 252 0 0 0 0 0 0 0 0 0 0 0 0 0 0 0 0 0 0 0 0 0 0 0 0 0 0 0 0 0 0 0 0 0 0 0 0 0 0 0 0 0 0 0 0 0 0 0 0 0 0 0 0 0 0 0 0 0 0 0 0 0 0 0 0 0 0 0 119 252 0 112 236 0 112 236 0 119 251 0 0 0 0 0 0 29 29 29 27 27 27 27 27 27 27 27 27 27 27 27 27 27 27 27 27 27 27 27 27 27 27 27 27 27 27 
27 27 27 27 27 27 27 27 27 27 27 27 27 27 27 27 27 27 27 27 27 27 27 27 27 27 27 29 29 29 0 0 0 0 0 0 0 119 251 0 112 236 0 112 236 0 112 236 0 112 236 0 112 236 0 112 236 0 112 236 0 112 236 0 112 236 0 112 236 0 112 236 0 112 236 0 112 235 0 119 252 0 119 251 0 119 251 0 119 251 0 119 251 0 119 251 0 119 251 0 119 251 0 119 251 0 114 250 68 205 255 64 200 255 64 200 255 64 200 255 64 200 255 68 205 255 0 114 250 0 119 251 0 119 251 0 119 251 0 119 251 0 119 252 0 112 235 0 112 236 0 112 236 0 119 251 0 0 0 0 0 0 29 29 29 27 27 27 27 27 27 27 27 27 27 27 27 27 27 27 27 27 27 27 27 27 27 27 27 27 27 27 
27 27 27 27 27 27 27 27 27 27 27 27 27 27 27 27 27 27 27 27 27 27 27 27 27 27 27 29 29 29 0 0 0 0 0 0 0 119 251 0 112 236 0 112 236 0 112 236 0 112 236 0 112 236 0 112 236 0 112 236 0 112 236 0 112 236 0 112 236 0 112 236 0 112 236 0 112 236 0 112 236 0 112 236 0 112 236 0 112 236 0 112 236 0 112 236 0 112 236 0 112 236 0 112 236 0 107 235 64 193 253 60 188 252 60 188 252 60 188 252 60 188 252 64 193 253 0 107 235 0 112 236 0 112 236 0 112 236 0 112 236 0 112 236 0 112 236 0 112 236 0 112 236 0 119 251 0 0 0 0 0 0 29 29 29 27 27 27 27 27 27 27 27 27 27 27 27 27 27 27 27 27 27 27 27 27 27 27 27 27 27 27 
